<mxfile host="drawio.internal.loganmarchione.xyz" modified="2024-01-09T01:35:53.451Z" agent="Mozilla/5.0 (X11; Linux x86_64; rv:121.0) Gecko/20100101 Firefox/121.0" etag="fuqOS9GYO_ESLAb1_upd" version="22.1.16" type="device">
  <diagram name="Page-1" id="3Wcd_oS98Rbkm_E3alK9">
    <mxGraphModel dx="1434" dy="748" grid="1" gridSize="10" guides="1" tooltips="1" connect="1" arrows="1" fold="1" page="1" pageScale="1" pageWidth="850" pageHeight="1100" math="0" shadow="0">
      <root>
        <mxCell id="0" />
        <mxCell id="1" parent="0" />
        <mxCell id="5C0KSKrSwuikj9-oB2Ug-6" value="OpenWrt network" style="rounded=0;whiteSpace=wrap;html=1;verticalAlign=top;align=left;fontFamily=Courier New;" vertex="1" parent="1">
          <mxGeometry x="500" y="114.5" width="290" height="260" as="geometry" />
        </mxCell>
        <mxCell id="5C0KSKrSwuikj9-oB2Ug-1" value="OpenWrt" style="shape=image;verticalLabelPosition=bottom;verticalAlign=top;imageAspect=0;aspect=fixed;image=data:image/svg+xml,PHN2ZyB4bWxucz0iaHR0cDovL3d3dy53My5vcmcvMjAwMC9zdmciIHZpZXdCb3g9IjAgMCA0OCA0OCI+PGRlZnM+PGNsaXBQYXRoIGlkPSJvcGVud3J0X3N2Z19fYSI+PHBhdGggZD0iTTAgMGg3OTJ2NjEySDBaIi8+PC9jbGlwUGF0aD48L2RlZnM+PGcgY2xpcC1wYXRoPSJ1cmwoI29wZW53cnRfc3ZnX19hKSIgdHJhbnNmb3JtPSJtYXRyaXgoMS4wODAxIDAgMCAtMS4wODAxIC0yMjkuMTYgMjEwLjUxKSI+PGcgZmlsbD0iIzAwYWNlMiI+PHBhdGggZD0iTTIzNC4zOCAxNzEuNjlhMy4wMTYgMy4wMTYgMCAxIDEgMC02LjAzMSAzLjAxNiAzLjAxNiAwIDAgMSAwIDYuMDMxbS0xOC41MiAxNS41MSAzLjEzOS0zLjEzOWEyMS43IDIxLjcgMCAwIDAgMTUuMzg3IDYuMzcgMjEuNzA1IDIxLjcwNSAwIDAgMCAxNS4zODgtNi4zN2wzLjEzOSAzLjEzOWMtNC43NCA0Ljc0LTExLjI5NCA3LjY5NC0xOC41MjcgNy42OTQtNy4yMzIgMC0xMy43ODctMi45NTQtMTguNTI2LTcuNjk0Ii8+PHBhdGggZD0ibTIyMS41MiAxODEuNTMgMy4xMzktMy4xMzlhMTMuNzI1IDEzLjcyNSAwIDAgMCA5LjcyNCA0LjAzMSAxMy43MyAxMy43MyAwIDAgMCA5LjcyNi00LjAzMWwzLjE0IDMuMTM5Yy0zLjI5MyAzLjI5My03Ljg0OCA1LjM1Ni0xMi44NjQgNS4zNTYtNS4wMTcgMC05LjU3MS0yLjA2Mi0xMi44NjQtNS4zNTYiLz48cGF0aCBkPSJtMjI3LjE1IDE3NS45IDMuMTM5LTMuMTM5YTUuNzk1IDUuNzk1IDAgMCAwIDguMTg2IDBsMy4xMzkgMy4xMzlhMTAuMTgzIDEwLjE4MyAwIDAgMS03LjIzMiAyLjk4NWMtMi44IDAtNS4zNTYtMS4xMzktNy4yMzItMi45ODUiLz48L2c+PHBhdGggZmlsbD0iIzAwMjg0MyIgZD0iTTI0NS41MiAxNzYuNzZhMTMuNjk2IDEzLjY5NiAwIDAgMCAyLjY0Ny04LjA5NGMwLTcuNjAxLTYuMTg2LTEzLjc4Ny0xMy43ODctMTMuNzg3LTcuNjAyIDAtMTMuNzg3IDYuMTg2LTEzLjc4NyAxMy43ODcgMCAzLjAxNi45ODQgNS44MTcgMi42NDYgOC4wOTRsLTMuMTcgMy4xN2ExOC4wNTUgMTguMDU1IDAgMCAxLTMuOTA4LTExLjI2NGMwLTEwLjAzMiA4LjE4Ni0xOC4yMTggMTguMjE5LTE4LjIxOCAxMC4wMzIgMCAxOC4yMTggOC4xODYgMTguMjE4IDE4LjIxOCAwIDQuMjQ3LTEuNDc3IDguMTU2LTMuOTA4IDExLjI2NHoiLz48L2c+PC9zdmc+;fontFamily=Courier New;" vertex="1" parent="1">
          <mxGeometry x="290" y="220.5" width="48" height="48" as="geometry" />
        </mxCell>
        <mxCell id="5C0KSKrSwuikj9-oB2Ug-2" value="" style="shape=image;verticalLabelPosition=bottom;verticalAlign=top;imageAspect=0;aspect=fixed;image=data:image/svg+xml,PHN2ZyB4bWxucz0iaHR0cDovL3d3dy53My5vcmcvMjAwMC9zdmciIHZpZXdCb3g9IjAgMCA0OCA0OCI+PHBhdGggZmlsbD0iIzIwMWQxYyIgZD0iTTE2Ljk5IDQ4LjA0MnYtOC42MTVjOC40ODMgMCAxNS4zODUtNi45MDEgMTUuMzg1LTE1LjM4NFMyNS40NzMgOC42NTggMTYuOTkxIDguNjU4Vi4wNDNjMTMuMjMzIDAgMjQgMTAuNzY2IDI0IDI0IDAgMTMuMjMzLTEwLjc2NyAyNC0yNCAyNCIvPjxwYXRoIGZpbGw9IiM1Yjk2ZDYiIGQ9Ik0xNi45OSAxMi4wNjZjNi42MjggMCAxMiA1LjM3MyAxMiAxMnMtNS4zNzIgMTItMTIgMTItMTItNS4zNzItMTItMTIgNS4zNzMtMTIgMTItMTIiLz48cGF0aCBmaWxsPSIjMjExZDFkIiBkPSJNMzkuMjgzIDcuNjdoLS42NnYtLjM5aDEuNzc1di4zOTFoLS42NTl2MS43ODRoLS40NTZWNy42N20zLjcyNy0uMzg4djIuMTc1aC0uNDM3VjguMDc0bC0uNTg0IDEuMzJoLS4yNzdsLS41OTYtMS4zMDR2MS4zNjdoLS40MTdWNy4yODJoLjQzOGwuNzM0IDEuNTQ0LjY3Ny0xLjU0NGguNDYzIi8+PC9zdmc+" vertex="1" parent="1">
          <mxGeometry x="550" y="174.5" width="48" height="48" as="geometry" />
        </mxCell>
        <mxCell id="5C0KSKrSwuikj9-oB2Ug-3" value="" style="shape=image;verticalLabelPosition=bottom;verticalAlign=top;imageAspect=0;aspect=fixed;image=data:image/svg+xml,PHN2ZyB4bWxucz0iaHR0cDovL3d3dy53My5vcmcvMjAwMC9zdmciIHZpZXdCb3g9IjAgMCA0OCA0OCI+PHBhdGggZD0iTTQyLjI5MiAxNi4zNjVjLS4yNzguMjE2LTUuMTk0IDIuOTg2LTUuMTk0IDkuMTQ1IDAgNy4xMjQgNi4yNTUgOS42NDQgNi40NDIgOS43MDYtLjAyOC4xNTQtLjk5MyAzLjQ1Mi0zLjI5OCA2LjgxMi0yLjA1NCAyLjk1Ny00LjIgNS45MS03LjQ2NCA1LjkxLTMuMjY1IDAtNC4xMDUtMS44OTctNy44NzMtMS44OTctMy42NzIgMC00Ljk3OCAxLjk1OS03Ljk2NCAxLjk1OS0yLjk4NiAwLTUuMDctMi43MzYtNy40NjUtNi4wOTdDNi43MDEgMzcuOTU3IDQuNDYgMzEuODI3IDQuNDYgMjYuMDFjMC05LjMzMiA2LjA2Ny0xNC4yODEgMTIuMDQtMTQuMjgxIDMuMTcyIDAgNS44MTcgMi4wODMgNy44MSAyLjA4MyAxLjg5NiAwIDQuODUzLTIuMjA4IDguNDYzLTIuMjA4IDEuMzY4IDAgNi4yODQuMTI1IDkuNTIgNC43NjJ6TTMxLjA2IDcuNjUyYzEuNDkzLTEuNzcxIDIuNTUtNC4yMyAyLjU1LTYuNjg3IDAtLjM0LS4wMy0uNjg3LS4wOTItLjk2NS0yLjQzLjA5MS01LjMxOSAxLjYxOC03LjA2MiAzLjYzOS0xLjM2OCAxLjU1NS0yLjY0NSA0LjAxMy0yLjY0NSA2LjUwNCAwIC4zNzUuMDYzLjc1LjA5Mi44Ny4xNTMuMDI4LjQwMy4wNjIuNjUyLjA2MiAyLjE4IDAgNC45Mi0xLjQ2IDYuNTA1LTMuNDIzeiIgc3R5bGU9InN0cm9rZS13aWR0aDouMDQ4MDA0OCIvPjwvc3ZnPg==;" vertex="1" parent="1">
          <mxGeometry x="669" y="174.5" width="48" height="48" as="geometry" />
        </mxCell>
        <mxCell id="5C0KSKrSwuikj9-oB2Ug-4" value="" style="shape=image;verticalLabelPosition=bottom;verticalAlign=top;imageAspect=0;aspect=fixed;image=data:image/svg+xml,PHN2ZyB4bWxucz0iaHR0cDovL3d3dy53My5vcmcvMjAwMC9zdmciIHhtbG5zOnhsaW5rPSJodHRwOi8vd3d3LnczLm9yZy8xOTk5L3hsaW5rIiB2aWV3Qm94PSIwIDAgNDggNDgiPjxkZWZzPjxsaW5lYXJHcmFkaWVudCBpZD0ibGludXhfc3ZnX19tIj48c3RvcCBvZmZzZXQ9IjAiLz48c3RvcCBvZmZzZXQ9IjEiIHN0b3Atb3BhY2l0eT0iLjI1Ii8+PC9saW5lYXJHcmFkaWVudD48bGluZWFyR3JhZGllbnQgaWQ9ImxpbnV4X3N2Z19fbiI+PHN0b3Agb2Zmc2V0PSIwIiBzdG9wLWNvbG9yPSIjMTEwODAwIi8+PHN0b3Agb2Zmc2V0PSIuNTkiIHN0b3AtY29sb3I9IiNhNjVhMDAiIHN0b3Atb3BhY2l0eT0iLjgiLz48c3RvcCBvZmZzZXQ9IjEiIHN0b3AtY29sb3I9IiNmZjkyMWUiIHN0b3Atb3BhY2l0eT0iMCIvPjwvbGluZWFyR3JhZGllbnQ+PGxpbmVhckdyYWRpZW50IGlkPSJsaW51eF9zdmdfX28iPjxzdG9wIG9mZnNldD0iMCIgc3RvcC1jb2xvcj0iIzdjN2M3YyIvPjxzdG9wIG9mZnNldD0iMSIgc3RvcC1jb2xvcj0iIzdjN2M3YyIgc3RvcC1vcGFjaXR5PSIuMzMiLz48L2xpbmVhckdyYWRpZW50PjxsaW5lYXJHcmFkaWVudCBpZD0ibGludXhfc3ZnX19mIj48c3RvcCBvZmZzZXQ9IjAiIHN0b3AtY29sb3I9IiM3YzdjN2MiLz48c3RvcCBvZmZzZXQ9IjEiIHN0b3AtY29sb3I9IiM3YzdjN2MiIHN0b3Atb3BhY2l0eT0iLjMzIi8+PC9saW5lYXJHcmFkaWVudD48bGluZWFyR3JhZGllbnQgaWQ9ImxpbnV4X3N2Z19fYSI+PHN0b3Agb2Zmc2V0PSIwIiBzdG9wLWNvbG9yPSIjYjk4MzA5Ii8+PHN0b3Agb2Zmc2V0PSIxIiBzdG9wLWNvbG9yPSIjMzgyNjA1Ii8+PC9saW5lYXJHcmFkaWVudD48bGluZWFyR3JhZGllbnQgaWQ9ImxpbnV4X3N2Z19fYiI+PHN0b3Agb2Zmc2V0PSIwIiBzdG9wLWNvbG9yPSIjZWJjNDBjIi8+PHN0b3Agb2Zmc2V0PSIxIiBzdG9wLWNvbG9yPSIjZWJjNDBjIiBzdG9wLW9wYWNpdHk9IjAiLz48L2xpbmVhckdyYWRpZW50PjxsaW5lYXJHcmFkaWVudCBpZD0ibGludXhfc3ZnX19jIj48c3RvcCBvZmZzZXQ9IjAiLz48c3RvcCBvZmZzZXQ9IjEiIHN0b3Atb3BhY2l0eT0iMCIvPjwvbGluZWFyR3JhZGllbnQ+PGxpbmVhckdyYWRpZW50IGlkPSJsaW51eF9zdmdfX2QiPjxzdG9wIG9mZnNldD0iMCIgc3RvcC1jb2xvcj0iIzNlMmEwNiIvPjxzdG9wIG9mZnNldD0iMSIgc3RvcC1jb2xvcj0iI2FkNzgwYSIvPjwvbGluZWFyR3JhZGllbnQ+PGxpbmVhckdyYWRpZW50IGlkPSJsaW51eF9zdmdfX2UiPjxzdG9wIG9mZnNldD0iMCIgc3RvcC1jb2xvcj0iI2YzY2QwYyIvPjxzdG9wIG9mZnNldD0iMSIgc3RvcC1jb2xvcj0iI2YzY2QwYyIgc3RvcC1vcGFjaXR5PSIwIi8+PC9saW5lYXJHcmFkaWVudD48bGluZWFyR3JhZGllbnQgaWQ9ImxpbnV4X3N2Z19fcCI+PHN0b3Agb2Zmc2V0PSIwIiBzdG9wLWNvbG9yPSIjZmVmZWZjIi8+PHN0b3Agb2Zmc2V0PSIuNzUiIHN0b3AtY29sb3I9IiNmZWZlZmMiLz48c3RvcCBvZmZzZXQ9IjEiIHN0b3AtY29sb3I9IiNkNGQ0ZDQiLz48L2xpbmVhckdyYWRpZW50PjxsaW5lYXJHcmFkaWVudCBpZD0ibGludXhfc3ZnX19nIj48c3RvcCBvZmZzZXQ9IjAiIHN0b3AtY29sb3I9IiM3NTc1NzQiIHN0b3Atb3BhY2l0eT0iMCIvPjxzdG9wIG9mZnNldD0iLjI1IiBzdG9wLWNvbG9yPSIjNzU3NTc0Ii8+PHN0b3Agb2Zmc2V0PSIuNSIgc3RvcC1jb2xvcj0iIzc1NzU3NCIvPjxzdG9wIG9mZnNldD0iMSIgc3RvcC1jb2xvcj0iIzc1NzU3NCIgc3RvcC1vcGFjaXR5PSIwIi8+PC9saW5lYXJHcmFkaWVudD48bGluZWFyR3JhZGllbnQgaWQ9ImxpbnV4X3N2Z19faSI+PHN0b3Agb2Zmc2V0PSIwIiBzdG9wLWNvbG9yPSIjOTQ5NDk0IiBzdG9wLW9wYWNpdHk9Ii4zOSIvPjxzdG9wIG9mZnNldD0iLjUiIHN0b3AtY29sb3I9IiM5NDk0OTQiLz48c3RvcCBvZmZzZXQ9IjEiIHN0b3AtY29sb3I9IiM5NDk0OTQiIHN0b3Atb3BhY2l0eT0iLjM5Ii8+PC9saW5lYXJHcmFkaWVudD48bGluZWFyR3JhZGllbnQgaWQ9ImxpbnV4X3N2Z19fcSI+PHN0b3Agb2Zmc2V0PSIwIiBzdG9wLWNvbG9yPSIjYzhjOGM4Ii8+PHN0b3Agb2Zmc2V0PSIxIiBzdG9wLWNvbG9yPSIjNzk3OTc4Ii8+PC9saW5lYXJHcmFkaWVudD48bGluZWFyR3JhZGllbnQgaWQ9ImxpbnV4X3N2Z19faiI+PHN0b3Agb2Zmc2V0PSIwIiBzdG9wLWNvbG9yPSIjNzQ3NDc0Ii8+PHN0b3Agb2Zmc2V0PSIuMTMiIHN0b3AtY29sb3I9IiM4YzhjOGMiLz48c3RvcCBvZmZzZXQ9Ii4yNSIgc3RvcC1jb2xvcj0iI2E0YTRhNCIvPjxzdG9wIG9mZnNldD0iLjUiIHN0b3AtY29sb3I9IiNkNGQ0ZDQiLz48c3RvcCBvZmZzZXQ9Ii42MiIgc3RvcC1jb2xvcj0iI2Q0ZDRkNCIvPjxzdG9wIG9mZnNldD0iMSIgc3RvcC1jb2xvcj0iIzdjN2M3YyIvPjwvbGluZWFyR3JhZGllbnQ+PGxpbmVhckdyYWRpZW50IGlkPSJsaW51eF9zdmdfX2giPjxzdG9wIG9mZnNldD0iMCIgc3RvcC1jb2xvcj0iIzY0NjQ2NCIgc3RvcC1vcGFjaXR5PSIwIi8+PHN0b3Agb2Zmc2V0PSIuMzEiIHN0b3AtY29sb3I9IiM2NDY0NjQiIHN0b3Atb3BhY2l0eT0iLjU4Ii8+PHN0b3Agb2Zmc2V0PSIuNDciIHN0b3AtY29sb3I9IiM2NDY0NjQiLz48c3RvcCBvZmZzZXQ9Ii43MyIgc3RvcC1jb2xvcj0iIzY0NjQ2NCIgc3RvcC1vcGFjaXR5PSIuMjYiLz48c3RvcCBvZmZzZXQ9IjEiIHN0b3AtY29sb3I9IiM2NDY0NjQiIHN0b3Atb3BhY2l0eT0iMCIvPjwvbGluZWFyR3JhZGllbnQ+PGxpbmVhckdyYWRpZW50IGlkPSJsaW51eF9zdmdfX3IiPjxzdG9wIG9mZnNldD0iMCIgc3RvcC1jb2xvcj0iIzAyMDIwNCIvPjxzdG9wIG9mZnNldD0iLjczIiBzdG9wLWNvbG9yPSIjMDIwMjA0Ii8+PHN0b3Agb2Zmc2V0PSIxIiBzdG9wLWNvbG9yPSIjNWM1YzVjIi8+PC9saW5lYXJHcmFkaWVudD48bGluZWFyR3JhZGllbnQgaWQ9ImxpbnV4X3N2Z19fcyI+PHN0b3Agb2Zmc2V0PSIwIiBzdG9wLWNvbG9yPSIjZDI5NDBhIi8+PHN0b3Agb2Zmc2V0PSIuNzUiIHN0b3AtY29sb3I9IiNkODljMDgiLz48c3RvcCBvZmZzZXQ9Ii44NyIgc3RvcC1jb2xvcj0iI2I2N2UwNyIvPjxzdG9wIG9mZnNldD0iMSIgc3RvcC1jb2xvcj0iIzk0NjEwNiIvPjwvbGluZWFyR3JhZGllbnQ+PGxpbmVhckdyYWRpZW50IGlkPSJsaW51eF9zdmdfX2siPjxzdG9wIG9mZnNldD0iMCIgc3RvcC1jb2xvcj0iI2FkNzgwYSIvPjxzdG9wIG9mZnNldD0iLjEyIiBzdG9wLWNvbG9yPSIjZDg5ZTA4Ii8+PHN0b3Agb2Zmc2V0PSIuMjUiIHN0b3AtY29sb3I9IiNlZGI4MGIiLz48c3RvcCBvZmZzZXQ9Ii4zOSIgc3RvcC1jb2xvcj0iI2ViYzgwZCIvPjxzdG9wIG9mZnNldD0iLjUzIiBzdG9wLWNvbG9yPSIjZjVkODM4Ii8+PHN0b3Agb2Zmc2V0PSIuNzciIHN0b3AtY29sb3I9IiNmNmQ4MTEiLz48c3RvcCBvZmZzZXQ9IjEiIHN0b3AtY29sb3I9IiNmNWNkMzEiLz48L2xpbmVhckdyYWRpZW50PjxsaW5lYXJHcmFkaWVudCBpZD0ibGludXhfc3ZnX190Ij48c3RvcCBvZmZzZXQ9IjAiIHN0b3AtY29sb3I9IiMzYTI5MDMiLz48c3RvcCBvZmZzZXQ9Ii41NSIgc3RvcC1jb2xvcj0iIzczNTIwOCIvPjxzdG9wIG9mZnNldD0iMSIgc3RvcC1jb2xvcj0iI2FjOGMwNCIvPjwvbGluZWFyR3JhZGllbnQ+PGxpbmVhckdyYWRpZW50IGlkPSJsaW51eF9zdmdfX2wiPjxzdG9wIG9mZnNldD0iMCIgc3RvcC1jb2xvcj0iI2Y1Y2UyZCIvPjxzdG9wIG9mZnNldD0iMSIgc3RvcC1jb2xvcj0iI2Q3OWIwOCIvPjwvbGluZWFyR3JhZGllbnQ+PGxpbmVhckdyYWRpZW50IHhsaW5rOmhyZWY9IiNsaW51eF9zdmdfX2EiIGlkPSJsaW51eF9zdmdfX1YiIHgxPSIyMy4xOCIgeDI9IjY0LjMxIiB5MT0iMTkzLjAxIiB5Mj0iMjYyLjAyIiBncmFkaWVudFVuaXRzPSJ1c2VyU3BhY2VPblVzZSIgaHJlZj0iI2xpbnV4X3N2Z19fYSIvPjxsaW5lYXJHcmFkaWVudCB4bGluazpocmVmPSIjbGludXhfc3ZnX19iIiBpZD0ibGludXhfc3ZnX19aIiB4MT0iNjQuNDciIHgyPSI3Ny40MSIgeTE9IjIxMC44MyIgeTI9IjIzNS4yMSIgZ3JhZGllbnRVbml0cz0idXNlclNwYWNlT25Vc2UiIGhyZWY9IiNsaW51eF9zdmdfX2IiLz48bGluZWFyR3JhZGllbnQgeGxpbms6aHJlZj0iI2xpbnV4X3N2Z19fYyIgaWQ9ImxpbnV4X3N2Z19fYWIiIHgxPSIxNDYuOTMiIHgyPSIxNTAuMiIgeTE9IjIxMS45NiIgeTI9IjIzNS43MyIgZ3JhZGllbnRVbml0cz0idXNlclNwYWNlT25Vc2UiIGhyZWY9IiNsaW51eF9zdmdfX2MiLz48bGluZWFyR3JhZGllbnQgeGxpbms6aHJlZj0iI2xpbnV4X3N2Z19fZCIgaWQ9ImxpbnV4X3N2Z19fYWQiIHgxPSIxNTEuNSIgeDI9IjE5Mi45NCIgeTE9IjI1My4wMiIgeTI9IjE4NS44NCIgZ3JhZGllbnRVbml0cz0idXNlclNwYWNlT25Vc2UiIGhyZWY9IiNsaW51eF9zdmdfX2QiLz48bGluZWFyR3JhZGllbnQgeGxpbms6aHJlZj0iI2xpbnV4X3N2Z19fZSIgaWQ9ImxpbnV4X3N2Z19fYWgiIHgxPSIxNjIuODEiIHgyPSIxNjEuNTkiIHkxPSIxODAuNjciIHkyPSIxOTEuNjQiIGdyYWRpZW50VW5pdHM9InVzZXJTcGFjZU9uVXNlIiBocmVmPSIjbGludXhfc3ZnX19lIi8+PGxpbmVhckdyYWRpZW50IHhsaW5rOmhyZWY9IiNsaW51eF9zdmdfX2YiIGlkPSJsaW51eF9zdmdfX2FyIiB4MT0iMTY1LjY5IiB4Mj0iMTY4LjI3IiB5MT0iMTczLjU4IiB5Mj0iMTczLjQ3IiBncmFkaWVudFVuaXRzPSJ1c2VyU3BhY2VPblVzZSIgaHJlZj0iI2xpbnV4X3N2Z19fZiIvPjxsaW5lYXJHcmFkaWVudCB4bGluazpocmVmPSIjbGludXhfc3ZnX19nIiBpZD0ibGludXhfc3ZnX19hdCIgeDE9Ijg0LjI5IiB4Mj0iODkuMzIiIHkxPSI0Ni42NCIgeTI9IjU1LjYzIiBncmFkaWVudFVuaXRzPSJ1c2VyU3BhY2VPblVzZSIgaHJlZj0iI2xpbnV4X3N2Z19fZyIvPjxsaW5lYXJHcmFkaWVudCB4bGluazpocmVmPSIjbGludXhfc3ZnX19oIiBpZD0ibGludXhfc3ZnX19heSIgeDE9IjgzLjU5IiB4Mj0iOTQuNDgiIHkxPSIzMi41MSIgeTI9IjQzLjYzIiBncmFkaWVudFVuaXRzPSJ1c2VyU3BhY2VPblVzZSIgaHJlZj0iI2xpbnV4X3N2Z19faCIvPjxsaW5lYXJHcmFkaWVudCB4bGluazpocmVmPSIjbGludXhfc3ZnX19pIiBpZD0ibGludXhfc3ZnX19hQiIgeDE9IjExNy44NyIgeDI9IjEyMy42NiIgeTE9IjQ3LjI1IiB5Mj0iNTQuMTEiIGdyYWRpZW50VW5pdHM9InVzZXJTcGFjZU9uVXNlIiBocmVmPSIjbGludXhfc3ZnX19pIi8+PGxpbmVhckdyYWRpZW50IHhsaW5rOmhyZWY9IiNsaW51eF9zdmdfX2oiIGlkPSJsaW51eF9zdmdfX2FFIiB4MT0iMTEyLjkiIHgyPSIxMzEuMzIiIHkxPSIzNi4yMyIgeTI9IjQ3LjAxIiBncmFkaWVudFVuaXRzPSJ1c2VyU3BhY2VPblVzZSIgaHJlZj0iI2xpbnV4X3N2Z19faiIvPjxsaW5lYXJHcmFkaWVudCB4bGluazpocmVmPSIjbGludXhfc3ZnX19oIiBpZD0ibGludXhfc3ZnX19hRyIgeDE9IjExOS4xNiIgeDI9IjEzMS40MiIgeTE9IjMxLjU2IiB5Mj0iNDMuMTQiIGdyYWRpZW50VW5pdHM9InVzZXJTcGFjZU9uVXNlIiBocmVmPSIjbGludXhfc3ZnX19oIi8+PGxpbmVhckdyYWRpZW50IHhsaW5rOmhyZWY9IiNsaW51eF9zdmdfX2siIGlkPSJsaW51eF9zdmdfX2FQIiB4MT0iNzguMDkiIHgyPSIxMjYuNzciIHkxPSI2OS4yNiIgeTI9IjY4Ljg4IiBncmFkaWVudFVuaXRzPSJ1c2VyU3BhY2VPblVzZSIgaHJlZj0iI2xpbnV4X3N2Z19fayIvPjxsaW5lYXJHcmFkaWVudCB4bGluazpocmVmPSIjbGludXhfc3ZnX19sIiBpZD0ibGludXhfc3ZnX19hVyIgeDE9IjEyNi43NCIgeDI9IjEyNi43NCIgeTE9IjY3LjQ5IiB5Mj0iNzEuMDkiIGdyYWRpZW50VW5pdHM9InVzZXJTcGFjZU9uVXNlIiBocmVmPSIjbGludXhfc3ZnX19sIi8+PGZpbHRlciBpZD0ibGludXhfc3ZnX19JIiB3aWR0aD0iMS4xIiBoZWlnaHQ9IjEuMDkyIiB4PSItLjA1IiB5PSItLjA0NiI+PGZlR2F1c3NpYW5CbHVyIHN0ZERldmlhdGlvbj0iMC42NCAwLjU1Ii8+PC9maWx0ZXI+PGZpbHRlciBpZD0ibGludXhfc3ZnX19LIiB3aWR0aD0iMS4xMDEiIGhlaWdodD0iMS4xNDYiIHg9Ii0uMDUxIiB5PSItLjA3MyI+PGZlR2F1c3NpYW5CbHVyIHN0ZERldmlhdGlvbj0iLjk4Ii8+PC9maWx0ZXI+PGZpbHRlciBpZD0ibGludXhfc3ZnX19NIiB3aWR0aD0iMS4xNzUiIGhlaWdodD0iMS4xNjMiIHg9Ii0uMDg3IiB5PSItLjA4MiI+PGZlR2F1c3NpYW5CbHVyIHN0ZERldmlhdGlvbj0iLjY4Ii8+PC9maWx0ZXI+PGZpbHRlciBpZD0ibGludXhfc3ZnX19OIiB3aWR0aD0iMi42MzkiIGhlaWdodD0iMS4xMTYiIHg9Ii0uODIiIHk9Ii0uMDU4Ij48ZmVHYXVzc2lhbkJsdXIgc3RkRGV2aWF0aW9uPSIxLjI1Ii8+PC9maWx0ZXI+PGZpbHRlciBpZD0ibGludXhfc3ZnX19PIiB3aWR0aD0iMS45ODQiIGhlaWdodD0iMi4xODYiIHg9Ii0uNDkyIiB5PSItLjU5MyI+PGZlR2F1c3NpYW5CbHVyIHN0ZERldmlhdGlvbj0iMS43OCAyLjE5Ii8+PC9maWx0ZXI+PGZpbHRlciBpZD0ibGludXhfc3ZnX19QIiB3aWR0aD0iMS41ODUiIGhlaWdodD0iMS42MTciIHg9Ii0uMjkzIiB5PSItLjMwOSI+PGZlR2F1c3NpYW5CbHVyIHN0ZERldmlhdGlvbj0iMS43MyIvPjwvZmlsdGVyPjxmaWx0ZXIgaWQ9ImxpbnV4X3N2Z19fUSIgd2lkdGg9IjEuMzU3IiBoZWlnaHQ9IjEuMzIiIHg9Ii0uMTc4IiB5PSItLjE2Ij48ZmVHYXVzc2lhbkJsdXIgc3RkRGV2aWF0aW9uPSIuNzgiLz48L2ZpbHRlcj48ZmlsdGVyIGlkPSJsaW51eF9zdmdfX1MiIHdpZHRoPSIxLjIwMyIgaGVpZ2h0PSIxLjA4NiIgeD0iLS4xMDEiIHk9Ii0uMDQzIj48ZmVHYXVzc2lhbkJsdXIgc3RkRGV2aWF0aW9uPSIuOTgiLz48L2ZpbHRlcj48ZmlsdGVyIGlkPSJsaW51eF9zdmdfX1UiIHdpZHRoPSIxLjIzNiIgaGVpZ2h0PSIxLjA4IiB4PSItLjExOCIgeT0iLS4wNCI+PGZlR2F1c3NpYW5CbHVyIHN0ZERldmlhdGlvbj0iMS4xOSAxLjE3Ii8+PC9maWx0ZXI+PGZpbHRlciBpZD0ibGludXhfc3ZnX19YIiB3aWR0aD0iMS4yMTUiIGhlaWdodD0iMS4yMTciIHg9Ii0uMTA3IiB5PSItLjEwOCI+PGZlR2F1c3NpYW5CbHVyIHN0ZERldmlhdGlvbj0iMy4zOCIvPjwvZmlsdGVyPjxmaWx0ZXIgaWQ9ImxpbnV4X3N2Z19fWSIgd2lkdGg9IjEuMTUxIiBoZWlnaHQ9IjEuMTM5IiB4PSItLjA3NSIgeT0iLS4wNyI+PGZlR2F1c3NpYW5CbHVyIHN0ZERldmlhdGlvbj0iMi4xIDIuMDYiLz48L2ZpbHRlcj48ZmlsdGVyIGlkPSJsaW51eF9zdmdfX2FhIiB3aWR0aD0iMS4wNjgiIGhlaWdodD0iMS4wMzciIHg9Ii0uMDM0IiB5PSItLjAxOSI+PGZlR2F1c3NpYW5CbHVyIHN0ZERldmlhdGlvbj0iLjMyIi8+PC9maWx0ZXI+PGZpbHRlciBpZD0ibGludXhfc3ZnX19hYyIgd2lkdGg9IjEuMTUyIiBoZWlnaHQ9IjEuMTM2IiB4PSItLjA3NiIgeT0iLS4wNjgiPjxmZUdhdXNzaWFuQmx1ciBzdGREZXZpYXRpb249IjEuOTUgMS45Ii8+PC9maWx0ZXI+PGZpbHRlciBpZD0ibGludXhfc3ZnX19hZiIgd2lkdGg9IjEuMjkiIGhlaWdodD0iMS4yODYiIHg9Ii0uMTQ1IiB5PSItLjE0MyI+PGZlR2F1c3NpYW5CbHVyIHN0ZERldmlhdGlvbj0iNC4xMiIvPjwvZmlsdGVyPjxmaWx0ZXIgaWQ9ImxpbnV4X3N2Z19fYWciIHdpZHRoPSIxLjIzIiBoZWlnaHQ9IjEuMjUiIHg9Ii0uMTE1IiB5PSItLjEyNSI+PGZlR2F1c3NpYW5CbHVyIHN0ZERldmlhdGlvbj0iMy4xMiAzLjM3Ii8+PC9maWx0ZXI+PGZpbHRlciBpZD0ibGludXhfc3ZnX19haSIgd2lkdGg9IjEuMDQyIiBoZWlnaHQ9IjEuMjU3IiB4PSItLjAyMSIgeT0iLS4xMjgiPjxmZUdhdXNzaWFuQmx1ciBzdGREZXZpYXRpb249Ii40MSIvPjwvZmlsdGVyPjxmaWx0ZXIgaWQ9ImxpbnV4X3N2Z19fYWsiIHdpZHRoPSIxLjQwMSIgaGVpZ2h0PSIxLjQ2OCIgeD0iLS4yIiB5PSItLjIzNCI+PGZlR2F1c3NpYW5CbHVyIHN0ZERldmlhdGlvbj0iMi40NSIvPjwvZmlsdGVyPjxmaWx0ZXIgaWQ9ImxpbnV4X3N2Z19fYW0iIHdpZHRoPSIxLjE4MyIgaGVpZ2h0PSIxLjIxNCIgeD0iLS4wOTIiIHk9Ii0uMTA3Ij48ZmVHYXVzc2lhbkJsdXIgc3RkRGV2aWF0aW9uPSIxLjEyIDAuODEiLz48L2ZpbHRlcj48ZmlsdGVyIGlkPSJsaW51eF9zdmdfX2FxIiB3aWR0aD0iMS4xNCIgaGVpZ2h0PSIxLjMiIHg9Ii0uMDciIHk9Ii0uMTUiPjxmZUdhdXNzaWFuQmx1ciBzdGREZXZpYXRpb249Ii44OCIvPjwvZmlsdGVyPjxmaWx0ZXIgaWQ9ImxpbnV4X3N2Z19fYXYiIHdpZHRoPSIxLjQ2NyIgaGVpZ2h0PSIxLjI5MSIgeD0iLS4yMzMiIHk9Ii0uMTQ1Ij48ZmVHYXVzc2lhbkJsdXIgc3RkRGV2aWF0aW9uPSIuNDQiLz48L2ZpbHRlcj48ZmlsdGVyIGlkPSJsaW51eF9zdmdfX2F6IiB3aWR0aD0iMS4wNDgiIGhlaWdodD0iMS4wNTMiIHg9Ii0uMDI0IiB5PSItLjAyNyI+PGZlR2F1c3NpYW5CbHVyIHN0ZERldmlhdGlvbj0iLjEyIi8+PC9maWx0ZXI+PGZpbHRlciBpZD0ibGludXhfc3ZnX19hRCIgd2lkdGg9IjEuMzU5IiBoZWlnaHQ9IjEuMzY1IiB4PSItLjE4IiB5PSItLjE4MiI+PGZlR2F1c3NpYW5CbHVyIHN0ZERldmlhdGlvbj0iLjQ1Ii8+PC9maWx0ZXI+PGZpbHRlciBpZD0ibGludXhfc3ZnX19hSCIgd2lkdGg9IjEuMDQ3IiBoZWlnaHQ9IjEuMDUxIiB4PSItLjAyNCIgeT0iLS4wMjYiPjxmZUdhdXNzaWFuQmx1ciBzdGREZXZpYXRpb249Ii4xMyIvPjwvZmlsdGVyPjxmaWx0ZXIgaWQ9ImxpbnV4X3N2Z19fYUkiIHdpZHRoPSIxLjE1MiIgaGVpZ2h0PSIxLjI1OCIgeD0iLS4wNzYiIHk9Ii0uMTI5Ij48ZmVHYXVzc2lhbkJsdXIgc3RkRGV2aWF0aW9uPSIxLjc1Ii8+PC9maWx0ZXI+PGZpbHRlciBpZD0ibGludXhfc3ZnX19hSiIgd2lkdGg9IjEuMDczIiBoZWlnaHQ9IjEuMTQ4IiB4PSItLjAzNiIgeT0iLS4wNzQiPjxmZUdhdXNzaWFuQmx1ciBzdGREZXZpYXRpb249IjAuOCAwLjc0Ii8+PC9maWx0ZXI+PGZpbHRlciBpZD0ibGludXhfc3ZnX19hTiIgd2lkdGg9IjEuMzA5IiBoZWlnaHQ9IjEuNDIxIiB4PSItLjE1NCIgeT0iLS4yMTEiPjxmZUdhdXNzaWFuQmx1ciBzdGREZXZpYXRpb249Ii43NyIvPjwvZmlsdGVyPjxmaWx0ZXIgaWQ9ImxpbnV4X3N2Z19fYU8iIHdpZHRoPSIxLjA2OCIgaGVpZ2h0PSIxLjE1OCIgeD0iLS4wMzQiIHk9Ii0uMDc5Ij48ZmVHYXVzc2lhbkJsdXIgc3RkRGV2aWF0aW9uPSIuNjUiLz48L2ZpbHRlcj48ZmlsdGVyIGlkPSJsaW51eF9zdmdfX2FSIiB3aWR0aD0iMS4zMjEiIGhlaWdodD0iMS4yNiIgeD0iLS4xNjEiIHk9Ii0uMTMiPjxmZUdhdXNzaWFuQmx1ciBzdGREZXZpYXRpb249Ii43MyIvPjwvZmlsdGVyPjxmaWx0ZXIgaWQ9ImxpbnV4X3N2Z19fYVQiIHdpZHRoPSIxLjI0NSIgaGVpZ2h0PSIxLjIyMiIgeD0iLS4xMjIiIHk9Ii0uMTExIj48ZmVHYXVzc2lhbkJsdXIgc3RkRGV2aWF0aW9uPSIuMSIvPjwvZmlsdGVyPjxmaWx0ZXIgaWQ9ImxpbnV4X3N2Z19fYVYiIHdpZHRoPSIxLjA5OCIgaGVpZ2h0PSIxLjE4NyIgeD0iLS4wNDkiIHk9Ii0uMDkzIj48ZmVHYXVzc2lhbkJsdXIgc3RkRGV2aWF0aW9uPSIuMSIvPjwvZmlsdGVyPjxmaWx0ZXIgaWQ9ImxpbnV4X3N2Z19fYVkiIHdpZHRoPSIxLjIyMiIgaGVpZ2h0PSIxLjE4MSIgeD0iLS4xMTEiIHk9Ii0uMDkxIj48ZmVHYXVzc2lhbkJsdXIgc3RkRGV2aWF0aW9uPSIuMjMiLz48L2ZpbHRlcj48cmFkaWFsR3JhZGllbnQgeGxpbms6aHJlZj0iI2xpbnV4X3N2Z19fbSIgaWQ9ImxpbnV4X3N2Z19fRyIgY3g9IjAiIGN5PSIwIiByPSIxIiBncmFkaWVudFRyYW5zZm9ybT0ibWF0cml4KDE5IDAgMCAxOCA2MS4xOCAxMjEuMTkpIiBncmFkaWVudFVuaXRzPSJ1c2VyU3BhY2VPblVzZSIgaHJlZj0iI2xpbnV4X3N2Z19fbSIvPjxyYWRpYWxHcmFkaWVudCB4bGluazpocmVmPSIjbGludXhfc3ZnX19tIiBpZD0ibGludXhfc3ZnX19KIiBjeD0iMCIgY3k9IjAiIHI9IjEiIGdyYWRpZW50VHJhbnNmb3JtPSJtYXRyaXgoMjMuNiAwIDAgMTggMTI1Ljc0IDEzMS42KSIgZ3JhZGllbnRVbml0cz0idXNlclNwYWNlT25Vc2UiIGhyZWY9IiNsaW51eF9zdmdfX20iLz48cmFkaWFsR3JhZGllbnQgeGxpbms6aHJlZj0iI2xpbnV4X3N2Z19fbSIgaWQ9ImxpbnV4X3N2Z19fTCIgY3g9IjAiIGN5PSIwIiByPSIxIiBncmFkaWVudFRyYW5zZm9ybT0ibWF0cml4KDkuMzUgMCAwIDEwIDk0LjIxIDEyNy40NykiIGdyYWRpZW50VW5pdHM9InVzZXJTcGFjZU9uVXNlIiBocmVmPSIjbGludXhfc3ZnX19tIi8+PHJhZGlhbEdyYWRpZW50IHhsaW5rOmhyZWY9IiNsaW51eF9zdmdfX24iIGlkPSJsaW51eF9zdmdfX2FqIiBjeD0iMCIgY3k9IjAiIHI9IjEiIGdyYWRpZW50VHJhbnNmb3JtPSJtYXRyaXgoMTguOTkwMSA1LjA4ODM4IC01LjM0MjAzIDE5LjkzNjcgMTY5LjcxIDE5NC41MykiIGdyYWRpZW50VW5pdHM9InVzZXJTcGFjZU9uVXNlIiBocmVmPSIjbGludXhfc3ZnX19uIi8+PHJhZGlhbEdyYWRpZW50IHhsaW5rOmhyZWY9IiNsaW51eF9zdmdfX24iIGlkPSJsaW51eF9zdmdfX2FsIiBjeD0iMCIgY3k9IjAiIHI9IjEiIGdyYWRpZW50VHJhbnNmb3JtPSJtYXRyaXgoMTkuNzIyNCAtLjgzMzUxIC42Mjc0NSAxNC44NDY3NSAxNjkuNzEgMTg5Ljg5KSIgZ3JhZGllbnRVbml0cz0idXNlclNwYWNlT25Vc2UiIGhyZWY9IiNsaW51eF9zdmdfX24iLz48cmFkaWFsR3JhZGllbnQgeGxpbms6aHJlZj0iI2xpbnV4X3N2Z19fbyIgaWQ9ImxpbnV4X3N2Z19fYW8iIGN4PSIwIiBjeT0iMCIgcj0iMSIgZ3JhZGllbnRUcmFuc2Zvcm09Im1hdHJpeCg2LjM3MzU3IDIuNzcxMyAtMS4yNzk5OCAyLjk0Mzc2IDE4NC42NSAxNzYuNjIpIiBncmFkaWVudFVuaXRzPSJ1c2VyU3BhY2VPblVzZSIgaHJlZj0iI2xpbnV4X3N2Z19fbyIvPjxyYWRpYWxHcmFkaWVudCB4bGluazpocmVmPSIjbGludXhfc3ZnX19wIiBpZD0ibGludXhfc3ZnX19hcyIgY3g9IjAiIGN5PSIwIiByPSIxIiBncmFkaWVudFRyYW5zZm9ybT0ibWF0cml4KDEwLjIzOTQ0IC0uMTA3MjMgLjE2NDIgMTUuNjc5MTQgODYuNDkgNTEuNDEpIiBncmFkaWVudFVuaXRzPSJ1c2VyU3BhY2VPblVzZSIgaHJlZj0iI2xpbnV4X3N2Z19fcCIvPjxyYWRpYWxHcmFkaWVudCB4bGluazpocmVmPSIjbGludXhfc3ZnX19xIiBpZD0ibGludXhfc3ZnX19hdyIgY3g9IjAiIGN5PSIwIiByPSIxIiBncmFkaWVudFRyYW5zZm9ybT0ibWF0cml4KDYuMTY2OTYgLTEuMDE1NCAuOTM3NDIgNS42OTMzNCA4NC44OSA0My43NCkiIGdyYWRpZW50VW5pdHM9InVzZXJTcGFjZU9uVXNlIiBocmVmPSIjbGludXhfc3ZnX19xIi8+PHJhZGlhbEdyYWRpZW50IHhsaW5rOmhyZWY9IiNsaW51eF9zdmdfX3AiIGlkPSJsaW51eF9zdmdfX2FBIiBjeD0iMCIgY3k9IjAiIHI9IjEiIGdyYWRpZW50VHJhbnNmb3JtPSJtYXRyaXgoMTMuNjMzMjcgLS40Mjg0NCAuNDkyNTIgMTUuNjcyMjYgMTE4LjA2IDUxLjQxKSIgZ3JhZGllbnRVbml0cz0idXNlclNwYWNlT25Vc2UiIGhyZWY9IiNsaW51eF9zdmdfX3AiLz48cmFkaWFsR3JhZGllbnQgeGxpbms6aHJlZj0iI2xpbnV4X3N2Z19fciIgaWQ9ImxpbnV4X3N2Z19fYUsiIGN4PSIwIiBjeT0iMCIgcj0iMSIgZ3JhZGllbnRUcmFuc2Zvcm09Im1hdHJpeCg5LjI1NTE1IC02LjcyNDI2IDYuMTAxMjEgOC4zOTc2IDk3LjY0IDYwLjEyKSIgZ3JhZGllbnRVbml0cz0idXNlclNwYWNlT25Vc2UiIGhyZWY9IiNsaW51eF9zdmdfX3IiLz48cmFkaWFsR3JhZGllbnQgeGxpbms6aHJlZj0iI2xpbnV4X3N2Z19fcyIgaWQ9ImxpbnV4X3N2Z19fYUwiIGN4PSIwIiBjeT0iMCIgcj0iMSIgZ3JhZGllbnRUcmFuc2Zvcm09Im1hdHJpeCgyNS4xMDE0MiAtMTAuMzQ2MDYgNy4yNjcwMSAxNy42MzExIDEwOS43NyA3MC42MSkiIGdyYWRpZW50VW5pdHM9InVzZXJTcGFjZU9uVXNlIiBocmVmPSIjbGludXhfc3ZnX19zIi8+PHJhZGlhbEdyYWRpZW50IHhsaW5rOmhyZWY9IiNsaW51eF9zdmdfX3QiIGlkPSJsaW51eF9zdmdfX2FTIiBjeD0iMCIgY3k9IjAiIHI9IjEiIGdyYWRpZW50VHJhbnNmb3JtPSJtYXRyaXgoMS4zMiAwIDAgMS40MiA5Mi4xMSA1OS44OCkiIGdyYWRpZW50VW5pdHM9InVzZXJTcGFjZU9uVXNlIiBocmVmPSIjbGludXhfc3ZnX190Ii8+PHJhZGlhbEdyYWRpZW50IHhsaW5rOmhyZWY9IiNsaW51eF9zdmdfX3QiIGlkPSJsaW51eF9zdmdfX2FVIiBjeD0iMCIgY3k9IjAiIHI9IjEiIGdyYWRpZW50VHJhbnNmb3JtPSJtYXRyaXgoMi43OCAwIDAgMS42MiAxMDQuNjUgNTkuNykiIGdyYWRpZW50VW5pdHM9InVzZXJTcGFjZU9uVXNlIiBocmVmPSIjbGludXhfc3ZnX190Ii8+PGNsaXBQYXRoIGlkPSJsaW51eF9zdmdfX0giPjx1c2UgeGxpbms6aHJlZj0iI2xpbnV4X3N2Z19fdSIgaHJlZj0iI2xpbnV4X3N2Z19fdSIvPjwvY2xpcFBhdGg+PGNsaXBQYXRoIGlkPSJsaW51eF9zdmdfX1IiPjx1c2UgeGxpbms6aHJlZj0iI2xpbnV4X3N2Z19fdiIgaHJlZj0iI2xpbnV4X3N2Z19fdiIvPjwvY2xpcFBhdGg+PGNsaXBQYXRoIGlkPSJsaW51eF9zdmdfX1QiPjx1c2UgeGxpbms6aHJlZj0iI2xpbnV4X3N2Z19fdyIgaHJlZj0iI2xpbnV4X3N2Z19fdyIvPjwvY2xpcFBhdGg+PGNsaXBQYXRoIGlkPSJsaW51eF9zdmdfX1ciPjx1c2UgeGxpbms6aHJlZj0iI2xpbnV4X3N2Z19feCIgaHJlZj0iI2xpbnV4X3N2Z19feCIvPjwvY2xpcFBhdGg+PGNsaXBQYXRoIGlkPSJsaW51eF9zdmdfX2FlIj48dXNlIHhsaW5rOmhyZWY9IiNsaW51eF9zdmdfX3kiIGhyZWY9IiNsaW51eF9zdmdfX3kiLz48L2NsaXBQYXRoPjxjbGlwUGF0aCBpZD0ibGludXhfc3ZnX19hcCI+PHVzZSB4bGluazpocmVmPSIjbGludXhfc3ZnX196IiBocmVmPSIjbGludXhfc3ZnX196Ii8+PC9jbGlwUGF0aD48Y2xpcFBhdGggaWQ9ImxpbnV4X3N2Z19fYXgiPjx1c2UgeGxpbms6aHJlZj0iI2xpbnV4X3N2Z19fQSIgaHJlZj0iI2xpbnV4X3N2Z19fQSIvPjwvY2xpcFBhdGg+PGNsaXBQYXRoIGlkPSJsaW51eF9zdmdfX2F1Ij48dXNlIHhsaW5rOmhyZWY9IiNsaW51eF9zdmdfX0IiIGhyZWY9IiNsaW51eF9zdmdfX0IiLz48L2NsaXBQYXRoPjxjbGlwUGF0aCBpZD0ibGludXhfc3ZnX19hRiI+PHVzZSB4bGluazpocmVmPSIjbGludXhfc3ZnX19DIiBocmVmPSIjbGludXhfc3ZnX19DIi8+PC9jbGlwUGF0aD48Y2xpcFBhdGggaWQ9ImxpbnV4X3N2Z19fYUMiPjx1c2UgeGxpbms6aHJlZj0iI2xpbnV4X3N2Z19fRCIgaHJlZj0iI2xpbnV4X3N2Z19fRCIvPjwvY2xpcFBhdGg+PGNsaXBQYXRoIGlkPSJsaW51eF9zdmdfX2FNIj48dXNlIHhsaW5rOmhyZWY9IiNsaW51eF9zdmdfX0UiIGhyZWY9IiNsaW51eF9zdmdfX0UiLz48L2NsaXBQYXRoPjxjbGlwUGF0aCBpZD0ibGludXhfc3ZnX19hUSI+PHVzZSB4bGluazpocmVmPSIjbGludXhfc3ZnX19GIiBocmVmPSIjbGludXhfc3ZnX19GIi8+PC9jbGlwUGF0aD48Y2xpcFBhdGggaWQ9ImxpbnV4X3N2Z19fYVgiPjx1c2UgeGxpbms6aHJlZj0iI2xpbnV4X3N2Z19fRSIgaHJlZj0iI2xpbnV4X3N2Z19fRSIvPjx1c2UgeGxpbms6aHJlZj0iI2xpbnV4X3N2Z19fRiIgaHJlZj0iI2xpbnV4X3N2Z19fRiIvPjwvY2xpcFBhdGg+PC9kZWZzPjxnIHRyYW5zZm9ybT0idHJhbnNsYXRlKDMuNzUpIHNjYWxlKC4xODc1KSI+PHBhdGggaWQ9ImxpbnV4X3N2Z19fdSIgZmlsbD0iIzAyMDIwNCIgZD0iTTEwNi45NSAwYy02IDAtMTIuMDIgMS4xOC0xNy40NiA0LjEyLTUuNzggMy4xMS0xMC41MiA4LjA5LTEzLjQzIDEzLjk3LTIuOTIgNS44OC00LjA2IDEyLjE2LTQuMjQgMTkuMDgtLjMzIDEzLjE0LjMgMjYuOTIgMS4yOSAzOS40MS4yNiAzLjguNzQgNi4wMi4yNSA5LjkzLTEuNjIgOC4zLTguODggMTMuODgtMTIuNzYgMjEuMTctNC4yNyA4LjA0LTYuMDcgMTcuMTMtOS4yOSAyNS42NS0yLjk1IDcuNzktNy4wOSAxNS4xLTkuODggMjIuOTUtMy45MSAxMC45Ny01LjA4IDIzLjAzLTIuNSAzNC4zOSAxLjk3IDguNjYgNi4wOCAxNi43OCAxMS42MiAyMy43My0uOCAxLjQ0LTEuNTggMi45MS0yLjQgNC4zNC0yLjU3IDQuNDMtNS43MSA4LjY0LTcuMTcgMTMuNTUtLjczIDIuNDUtMS4wMiA1LjA3LS41NSA3LjU5LjQ3IDIuNTIgMS43NSA0LjkzIDMuNzUgNi41MyAxLjMxIDEuMDQgMi45IDEuNzIgNC41MyAyLjEgMS42My4zNyAzLjMyLjQ2IDUgLjQzIDYuMzctLjE0IDEyLjU1LTIuMDcgMTguNzEtMy42OSAzLjY2LS45NiA3LjM0LTEuODEgMTEuMDMtMi41OCAxMy4xNC0yLjY5IDI3LjgtMS42MSAzOS45OS4xNSA0LjEzLjYzIDguMjMgMS40NCAxMi4yOSAyLjQzIDYuMzYgMS41NCAxMi42OSAzLjUgMTkuMjMgMy42OSAxLjcyLjA1IDMuNDYtLjAzIDUuMTQtLjQgMS42OC0uMzggMy4zMS0xLjA2IDQuNjUtMi4xMyAyLjAxLTEuNiAzLjI5LTQuMDIgMy43Ni02LjU0LjQ3LTIuNTIuMTgtNS4xNS0uNTYtNy42MS0xLjQ4LTQuOTItNC42NS05LjExLTcuMjctMTMuNTItMS4wNC0xLjc1LTItMy41My0zLjAzLTUuMjggNy45LTguODcgMTQuMjYtMTkuMTMgMTcuOTQtMzAuNCA0LjAxLTEyLjMgNC43NS0yNS41NSAzLjA2LTM4LjM4LTEuNjktMTIuODMtNS43Ni0yNS4yNy0xMS4xMS0zNy4wNS02LjcyLTE0Ljc2LTEyLjM3LTIwLjEtMTYuNDctMzMuMDctNC40Mi0xNC4wMi0uNzctMzAuNjEtNC4wNi00My4zMi0xLjE3LTQuMzItMy4wNC04LjQ1LTUuNDUtMTIuMjMtMi44Mi00LjQzLTYuNC04LjM5LTEwLjY1LTExLjQ3QzEyNC4xMyAyLjYyIDExNS42MSAwIDEwNi45NSAwWiIvPjxwYXRoIGZpbGw9IiNmZGZkZmIiIGQ9Ik04My4xMyA3NGMtLjkgMS4xMy0xLjQ4IDIuNDktMS44NCAzLjg5LS4zNSAxLjQtLjQ4IDIuODUtLjU0IDQuMy0uMTEgMi44OS4wNyA1LjgzLS43IDguNjItLjgyIDIuOTgtMi42NSA1LjU3LTQuNDQgOC4wOC0zLjExIDQuMzYtNi4yNSA4Ljg0LTcuNzggMTMuOTdhMjQuODEgMjQuODEgMCAwIDAtLjkxIDkuNjJjLTMuNDcgNS4xLTYuNDggMTAuNTMtOC45OCAxNi4xOC0zLjc4IDguNTctNi4zNyAxNy42OS03LjI4IDI3LjAxLTEuMTIgMTEuNDEuMzQgMjMuMTUgNC44NSAzMy42OSAzLjI1IDcuNjMgOC4xMSAxNC42IDE0LjM4IDIwLjA0YTQ5LjE1IDQ5LjE1IDAgMCAwIDEwLjUgNi45N2MxMy4xMSA2LjQ1IDI5LjMxIDYuNDYgNDIuMi0uNDEgNi43NC0zLjU5IDEyLjQzLTguODQgMTcuOTEtMTQuMTUgMy4zLTMuMiA2LjU5LTYuNDggOS4xMS0xMC4zMiA0Ljg1LTcuNDEgNi41NC0xNi40MSA3LjU5LTI1LjIgMS44My0xNS4zNiAxLjg5LTMxLjYtNC44NS00NS41My0yLjMyLTQuOC01LjQxLTkuMjItOS4xMi0xMy4wNS0uOTgtNi43LTIuOTMtMTMuMjctNS43Ni0xOS40Mi0yLjA1LTQuNDUtNC41NC04LjY4LTYuNDQtMTMuMTgtLjc4LTEuODUtMS40Ni0zLjc1LTIuMzItNS41Ni0uODctMS44MS0xLjkzLTMuNTUtMy4zOS00Ljk0LTEuNDgtMS40Mi0zLjMzLTIuNDMtNS4yOC0zLjA3LTEuOTUtLjY1LTQuMDEtLjk0LTYuMDYtMS4wNC00LjExLS4yMS04LjIyLjMzLTEyLjMzLjE2LTMuMjctLjEzLTYuNTMtLjctOS44LS41MS0xLjYzLjEtMy4yNi4zOS00Ljc4IDEuMDEtMS41Mi42MS0yLjkyIDEuNTYtMy45NCAyLjg0eiIvPjxwYXRoIGZpbGw9InVybCgjbGludXhfc3ZnX19HKSIgZD0iTTY4LjY3IDExNS4xOGMuODcgMS4zMS0uNTUgNS44NCAxOS44NiAyLjk0IDAgMC0zLjU5LjM5LTcuMTIgMS4yMS01LjQ5IDEuODQtMTAuMjcgMy44OS0xMy45NyA2LjYxLTMuNjUgMi43LTYuMzMgNi4yMS05LjY4IDkuMjIgMCAwIDUuNDMtOS45MiA2Ljc4LTEyLjkxIDEuMzYtMi45OS0uMjItMi44NS44NS03LjI1czMuNjktOC42MyAzLjY5LTguNjMtMi4xNCA2LjIyLS40MSA4LjgxeiIgY2xpcC1wYXRoPSJ1cmwoI2xpbnV4X3N2Z19fSCkiIGZpbHRlcj0idXJsKCNsaW51eF9zdmdfX0kpIiBvcGFjaXR5PSIuMjUiIHN0eWxlPSJmaWxsOnVybCgjbGludXhfc3ZnX19HKSIvPjxwYXRoIGZpbGw9InVybCgjbGludXhfc3ZnX19KKSIgZD0iTTEzNC4yOCAxMTMuOTljLTQuMTYgMi45LTYuNiAyLjU2LTExLjY0IDMuMTItNS4wNS41Ny0xOC43LjM2LTE4LjcuMzZzMS45Ny0uMDMgNi4zNi43OGM0LjM4LjgyIDEzLjMxIDEuNiAxOC4zNCAzLjUxIDUuMDQgMS45MiA2Ljg3IDIuNDcgOS45MyA0LjQgNC4zNSAyLjc1IDcuNTUgNy4wNiAxMS43MSAxMC4wOCAwIDAgLjItNC0xLjQ4LTYuOTlzLTYuMi03LjctNy41My0xMi4xYy0xLjMyLTQuNC0xLjk2LTEzLjA0LTEuOTYtMTMuMDRzLS44OCA2Ljk5LTUuMDMgOS44OHoiIGNsaXAtcGF0aD0idXJsKCNsaW51eF9zdmdfX0gpIiBmaWx0ZXI9InVybCgjbGludXhfc3ZnX19LKSIgb3BhY2l0eT0iLjQyIiBzdHlsZT0iZmlsbDp1cmwoI2xpbnV4X3N2Z19fSikiLz48cGF0aCBmaWxsPSJ1cmwoI2xpbnV4X3N2Z19fTCkiIGQ9Ik05NS4xNyAxMDcuODFjLS4xNiAxLjI1LS4zNiAyLjUtLjYgMy43NC0uMTIuNjEtLjI2IDEuMjItLjQ4IDEuOC0uMjMuNTgtLjU2IDEuMTQtMS4wMiAxLjU1LS40MS4zNy0uOS42Mi0xLjQuODUtMS45NC44OC00LjAxIDEuNDctNi4xMiAxLjc0Ljg0LjA2IDEuNjguMTQgMi41My4yMy41My4wNiAxLjA2LjEyIDEuNTcuMjUuNTIuMTQgMS4wMy4zNCAxLjQ2LjY1LjQ3LjM1Ljg0LjgyIDEuMTIgMS4zNC41NSAxLjAyLjczIDIuMi44MyAzLjM3LjEzIDEuNDguMTQgMi45OC4wMyA0LjQ2LjEtLjk5LjMxLTEuOTguNjItMi45Mi41Ny0xLjcyIDEuNDctMy4zMiAyLjY5LTQuNjUuNDktLjUyIDEuMDItMS4wMSAxLjYtMS40MmE4Ljg1OCA4Ljg1OCAwIDAgMSA2LjI0LTEuNTFjLTIuMjEuMDktNC40NC0uNi02LjItMS45My0uOS0uNjgtMS42OC0xLjUyLTIuMjItMi41YTYuOTkxIDYuOTkxIDAgMCAxLS42NS01LjA1eiIgY2xpcC1wYXRoPSJ1cmwoI2xpbnV4X3N2Z19fSCkiIGZpbHRlcj0idXJsKCNsaW51eF9zdmdfX00pIiBvcGFjaXR5PSIuMiIgc3R5bGU9ImZpbGw6dXJsKCNsaW51eF9zdmdfX0wpIi8+PHBhdGggZD0iTTg5Ljg1IDEzNy4xNGE3NS4zNjYgNzUuMzY2IDAgMCAwLTIuMTcgMTIuMzFjLS41NSA1Ljg3LS40MiAxMS43OC0uNzQgMTcuNjctLjI2IDQuOTktLjg1IDEwLjA0LjAyIDE0Ljk3YTI1LjI3IDI1LjI3IDAgMCAwIDIuMiA2Ljc4Yy4xNi0uODIuMjktMS42NC4zNi0yLjQ3LjM3LTQtLjMtOC4wMS0uNTMtMTIuMDEtLjQtNy4wMi41Ny0xNC4wNC45Ny0yMS4wNi4zLTUuMzkuMjctMTAuOC0uMTEtMTYuMTl6IiBjbGlwLXBhdGg9InVybCgjbGludXhfc3ZnX19IKSIgZmlsdGVyPSJ1cmwoI2xpbnV4X3N2Z19fTikiIG9wYWNpdHk9Ii4xMSIvPjxwYXRoIGZpbGw9IiM3YzdjN2MiIGQ9Ik0xNjAuMDggMTMxLjIzYzEuMDMtLjE2IDcuMzQgNS4yMSA2LjQ4IDcuMjEtLjg2IDEuOTktMi40OS43OS0zLjY1LjgtMS4xNi4wMi00LjMzIDEuNDYtNC44Ni41NS0uNTQtLjkxIDEuNC0zLjAzIDIuNDEtNC44MS44Mi0xLjQzLTEuNC0zLjU5LS4zOC0zLjc1eiIgY2xpcC1wYXRoPSJ1cmwoI2xpbnV4X3N2Z19fSCkiIGZpbHRlcj0idXJsKCNsaW51eF9zdmdfX08pIiBvcGFjaXR5PSIuNzUiLz48cGF0aCBmaWxsPSIjN2M3YzdjIiBkPSJNMTIxLjUyIDExLjEyYy0yLjIxIDEuNTYtMS4yNSAzLjUxLS4zIDUuNDYuOTUgMS45Ni0yLjA5IDcuNTktMi4xMiA3LjgzLS4wMy4yNCA1Ljk4LTIuODUgNy42Mi00Ljg3IDEuOTQtMi4zNyA2LjgzIDMuMjIgNi41NiAyLjM3LjAxLTEuNTItOS41NS0xMi4zNC0xMS43Ni0xMC43OXoiIGNsaXAtcGF0aD0idXJsKCNsaW51eF9zdmdfX0gpIiBmaWx0ZXI9InVybCgjbGludXhfc3ZnX19QKSIvPjxwYXRoIGZpbGw9IiM4MzgzODQiIGQ9Ik0xMzguMjcgNzYuNjNjLTEuODYgMS43Ljg4IDQuMjUgMi4xNyA3LjI0LjgxIDEuODYgMy4wNCA0LjQ5IDUuMiA0LjA3IDEuNjMtLjMyIDIuNjMtMi42NiAyLjQ4LTQuMy0uMy0zLjE4LTIuOTgtMy45My00LjkzLTUuMDItMS41NC0uODYtMy42MS0zLjE4LTQuOTItMS45OXoiIGNsaXAtcGF0aD0idXJsKCNsaW51eF9zdmdfX0gpIiBmaWx0ZXI9InVybCgjbGludXhfc3ZnX19RKSIvPjwvZz48ZyB0cmFuc2Zvcm09InRyYW5zbGF0ZSgzLjc1KSBzY2FsZSguMTg3NSkiPjxwYXRoIGlkPSJsaW51eF9zdmdfX3YiIGZpbGw9IiMwMjAyMDQiIGQ9Ik02My45OCAxMDAuOTFjLTYuMSA2LjkyLTEyLjM3IDEzLjYzLTE1LjgxIDIxLjEyLTEuNzEgMy44LTIuNTEgNy45My0zLjY4IDExLjkzLTEuMzIgNC41NC0zLjEyIDguOTQtNS4xNCAxMy4yMi0xLjg3IDMuOTUtMy45MyA3LjgxLTUuOTggMTEuNjYtMS41IDIuODEtMy4wMiA1LjY3LTMuNTQgOC44MS0uNDEgMi40OC0uMTggNS4wNC40NiA3LjQ3LjYzIDIuNDMgMS42NCA0Ljc1IDIuNzkgNi45OCA0Ljg4IDkuNTUgMTIuMjEgMTcuNzcgMjAuODkgMjQuMDcgMy45NCAyLjg1IDguMTUgNS4zMiAxMi41OCA3LjM1IDIuNCAxLjA5IDQuOTIgMi4wNyA3LjU2IDIuMTEgMS4zMi4wMyAyLjY1LS4xOSAzLjg2LS43MiAxLjItLjUzIDIuMjgtMS4zOCAzLTIuNDkuODgtMS4zNiAxLjE4LTMuMDUgMS00LjY2LS4xOC0xLjYxLS44MS0zLjE1LTEuNjUtNC41My0yLjA2LTMuMzgtNS4zMS01LjgzLTguNDQtOC4yNWEyODMuMzY0IDI4My4zNjQgMCAwIDEtMTkuNTUtMTYuNThjLTEuNzYtMS42NS0zLjUzLTMuMzQtNC43Ni01LjQyLTEuMi0yLjAyLTEuODUtNC4zMi0yLjI5LTYuNjMtMS4yMS02LjMzLS45LTEyLjk5IDEuMjUtMTkuMDcuODUtMi4zOCAxLjk2LTQuNjUgMy4wNC02LjkzIDEuODYtMy45NSAzLjYyLTcuOTggNi4wNy0xMS42IDMuMDUtNC41MSA3LjEzLTguMzMgOS42MS0xMy4xNyAyLjEtNC4wOSAyLjk1LTguNjggMy43Ni0xMy4yLjY0LTMuNTQgMS44NS03IDIuNDctMTAuNTQtMS4yMSAyLjMtNS4xMSA2LjA3LTcuNSA5LjA3eiIvPjxwYXRoIGZpbGw9IiM3YzdjN2MiIGQ9Ik01Ni45NiAxMjYuMWMtMiAxLjg0LTMuNzMgMy45Ny01LjEzIDYuMzEtMi4zIDMuODQtMy42NSA4LjE2LTUuMzMgMTIuMzEtMS4yNCAzLjA5LTIuNjkgNi4yLTIuODYgOS41My0uMDkgMS43MS4xNiAzLjQyLjIyIDUuMTNzLS4xIDMuNDktLjk0IDQuOThhNi4wNDggNi4wNDggMCAwIDEtMy4yMiAyLjcxYzEuODMuNjEgMy40NSAxLjc5IDQuNiAzLjMzLjk2IDEuMyAxLjU4IDIuODEgMi40MSA0LjE4LjY4IDEuMTIgMS41MSAyLjE2IDIuNTQgMi45NyAxLjAyLjgyIDIuMjUgMS40IDMuNTQgMS41NiAxLjc5LjIzIDMuNjUtLjM2IDQuOTctMS41OC0xLjY2LTE1LjU1LS4xNC0zMS40MiA0LjQ0LTQ2LjM3LjI5LS45NC41OS0xLjg5LjY3LTIuODcuMDctLjk5LS4xMi0yLjAzLS43Mi0yLjgxYTIuOTg5IDIuOTg5IDAgMCAwLTIuNzctMS4xN2MtLjUyLjA2LTEuMDMuMjYtMS40NS41Ny0uNDIuMzItLjc2Ljc0LS45NyAxLjIyeiIgY2xpcC1wYXRoPSJ1cmwoI2xpbnV4X3N2Z19fUikiIGZpbHRlcj0idXJsKCNsaW51eF9zdmdfX1MpIiBvcGFjaXR5PSIuOTUiLz48L2c+PGcgdHJhbnNmb3JtPSJ0cmFuc2xhdGUoMy43NSkgc2NhbGUoLjE4NzUpIj48cGF0aCBpZD0ibGludXhfc3ZnX193IiBmaWxsPSIjMDIwMjA0IiBkPSJNMTYyLjc2IDEyNy4xMmM1LjI0IDQuMjIgOC41NyAxMC41OSA5LjYgMTcuMjQuOCA1LjE4LjI4IDEwLjUxLS44OSAxNS42Mi0xLjE3IDUuMTItMi45NyAxMC4wNi00Ljc3IDE1LS43MSAxLjk2LTEuNDMgMy45NS0xLjcxIDYuMDItLjI5IDIuMDgtLjExIDQuMjcuODkgNi4xMSAxLjE1IDIuMTEgMy4yOSAzLjU2IDUuNTkgNC4yNCAyLjI3LjY4IDQuNzIuNjYgNy4wMi4wOSAyLjMtLjU3IDYuMTctMS4zMSA4LjA0LTIuNzcgNC43NS0zLjY5IDUuODgtMTAuMSA3LjAxLTE1LjcyIDEuMTctNS44Ny42LTEyLjAyLS40My0xNy45NS0xLjQxLTguMDktMy43OC0xNS45OS02Ljc5LTIzLjYyYTgyLjI3MiA4Mi4yNzIgMCAwIDAtOC40NC0xNS45NmMtMy4zMi00Ljg5LTguMDItOC43LTExLjUtMTMuNDgtMS4yMS0xLjY2LTIuNjYtMy4zOC0zLjg0LTUuMDYtMi41Ni0zLjYyLTEuOTgtMi45NC0zLjU3LTUuMjktMS4xNS0xLjctMi45Ny0yLjI4LTQuODgtMy4wMi0xLjkyLS43NC00LjA2LS45Ni02LjA0LS40MS0yLjYuNzMtNC43MyAyLjc5LTUuODYgNS4yNC0xLjEzIDIuNDYtMS4zMyA1LjI4LS44OSA3Ljk1LjU3IDMuNDQgMi4xNCA2LjY0IDMuOTIgOS42NCAyIDMuMzkgNC4zMiA2LjY2IDcuMzUgOS4xOCAzLjE2IDIuNjMgNi45OCA0LjM3IDEwLjE5IDYuOTV6Ii8+PHBhdGggZmlsbD0iIzgzODM4NCIgZD0iTTE1MC40MiAxMTguOTljLjQyLjQuODYuODEgMS4zMSAxLjE5IDMuMjIgMi42MyA0LjkzIDUuNTggOC4yIDguMTYgNS4zNCA0LjIyIDEwLjc1IDExLjUgMTEuOCAxOC4xNS44MiA1LjE5LS4yNiA4LjAxLTEuNTggMTQuMTItMS4zMiA2LjEyLTUuMDYgMTQuNzgtNy4wOSAyMC42OC0uOCAyLjM1IDEuNjQgMS4zOCAxLjMyIDMuODYtLjE2IDEuMjItLjE4IDIuNDUtLjAzIDMuNjcuMDItLjIzLjAzLS40OC4wNi0uNzEuMzktMy4zOCAxLjQyLTYuNjMgMi41NS05LjgyIDIuMTctNi4xMyA0LjY2LTEyLjE1IDYuMzgtMTguNDUgMS43Mi02LjI5IDEuNTMtMTAuODIuNjMtMTYuMjMtMS4xMy02LjgxLTUuMDktMTMuMDktMTAuNjktMTcuMjQtMy45Ny0yLjkzLTguNjQtNC44MS0xMi44Ni03LjM4eiIgY2xpcC1wYXRoPSJ1cmwoI2xpbnV4X3N2Z19fVCkiIGZpbHRlcj0idXJsKCNsaW51eF9zdmdfX1UpIi8+PC9nPjxnIHRyYW5zZm9ybT0idHJhbnNsYXRlKDMuNzUpIHNjYWxlKC4xODc1KSI+PHBhdGggaWQ9ImxpbnV4X3N2Z19feCIgZmlsbD0idXJsKCNsaW51eF9zdmdfX1YpIiBkPSJNMzQuOTggMTc1LjMzYzEuMzgtLjU3IDIuOTMtLjY4IDQuMzktLjQxIDEuNDcuMjcgMi44Ni45MSA0LjA5IDEuNzQgMi40NyAxLjY4IDQuMyA0LjEyIDYuMDUgNi41NCA0LjAzIDUuNTQgNy45IDExLjIgMTEuNDIgMTcuMDggMi44NSA0Ljc4IDUuNDYgOS43MSA4Ljc2IDE0LjE4IDIuMTUgMi45MyA0LjU3IDUuNjQgNi43MyA4LjU1IDIuMTYgMi45MiA0LjA3IDYuMDggNS4wMyA5LjU4IDEuMjUgNC41NS43NiA5LjU2LTEuNCAxMy43NS0xLjUyIDIuOTUtMy44NiA1LjQ4LTYuNyA3LjE5LTIuODQgMS43MS01LjgzIDIuNDctOS4xNSAyLjQ3LTUuMjcgMC0xMC40Mi0yLjgzLTE1LjMyLTQuNzgtOS45OC0zLjk4LTIwLjgyLTUuMjItMzEuMTEtOC4zMi0zLjE2LS45NS02LjI3LTIuMDgtOS40NS0yLjk1LTEuNDItLjM5LTIuODUtLjczLTQuMTktMS4zNC0xLjM0LS42LTIuNTktMS41MS0zLjMzLTIuNzctLjU3LS45OC0uOC0yLjEzLS44LTMuMjYgMC0xLjE0LjI4LTIuMjYuNjctMy4zMi43Ny0yLjEzIDIuMDItNC4wNiAyLjg2LTYuMTcgMS4zNy0zLjQ0IDEuNjItNy4yMyAxLjQzLTEwLjkzLS4xOC0zLjY5LS43OC03LjM2LTEuMDMtMTEuMDUtLjEyLTEuNjUtLjE2LTMuMzIuMTYtNC45NS4zMS0xLjYyIDEuMDEtMy4yMSAyLjItNC4zNSAxLjEtMS4wNiAyLjU1LTEuNjkgNC4wNS0yIDEuNDktLjMxIDMuMDMtLjMyIDQuNTUtLjI5IDEuNTIuMDMgMy4wNS4xMiA0LjU3LS4wMSAxLjUyLS4xMiAzLjA1LS40NiA0LjM3LTEuMjIgMS4yNi0uNzIgMi4yOS0xLjc5IDMuMTQtMi45Ni44NS0xLjE3IDEuNTQtMi40NSAyLjI1LTMuNzIuNy0xLjI2IDEuNDMtMi41MiAyLjM2LTMuNjQuOTItMS4xMiAyLjA2LTIuMDkgMy40LTIuNjR6IiBzdHlsZT0iZmlsbDp1cmwoI2xpbnV4X3N2Z19fVikiLz48cGF0aCBmaWxsPSIjZDk5YTAzIiBkPSJNMzcuMTYgMTc3LjdjMS4yNS0uNSAyLjY3LS41NiAzLjk4LS4yNiAxLjMyLjMgMi41NS45NCAzLjYxIDEuNzcgMi4xNCAxLjY1IDMuNjIgMy45NyA1LjA1IDYuMjYgMy40MiA1LjU0IDYuNzYgMTEuMTUgOS45MiAxNi44NiAyLjQgNC4zMSA0LjY4IDguNyA3LjYyIDEyLjY1IDEuOTUgMi42MiA0LjE4IDUuMDMgNi4xNyA3LjYyIDEuOTkgMi41OSAzLjc2IDUuNDEgNC42NCA4LjU2IDEuMTQgNC4wNS42OCA4LjU0LTEuMjggMTIuMjYtMS40MiAyLjY4LTMuNTggNC45Ni02LjIgNi40OGExNS45MzUgMTUuOTM1IDAgMCAxLTguNjkgMi4xNGMtNC44Mi0uMjItOS4yMy0yLjYzLTEzLjc3LTQuMjYtOC43MS0zLjE2LTE4LjE0LTMuNTktMjcuMDgtNi4wNS0zLjItLjg3LTYuMzItMi4wMy05LjUzLTIuODQtMS40My0uMzYtMi44OC0uNjYtNC4yMy0xLjIzLTEuMzUtLjU3LTIuNjItMS40NS0zLjM2LTIuNzItLjU0LS45NS0uNzYtMi4wNi0uNzMtMy4xNS4wNC0xLjA5LjMxLTIuMTcuNy0zLjE5Ljc4LTIuMDQgMi0zLjg4IDIuNzgtNS45MiAxLjE5LTMuMDggMS4zNC02LjQ3IDEuMTItOS43Ni0uMjItMy4yOS0uOC02LjU2LTEtOS44NS0uMDgtMS40OC0uMS0yLjk3LjItNC40MS4zLTEuNDUuOTMtMi44NSAxLjk4LTMuODkgMS4xNC0xLjEzIDIuNy0xLjc0IDQuMjktMS45OSAxLjU4LS4yNCAzLjE5LS4xMyA0Ljc4LjAxIDEuNi4xNCAzLjIuMzIgNC44LjIzIDEuNi0uMSAzLjIyLS40OSA0LjU0LTEuMzkgMS4yLS44MSAyLjEtMiAyLjc5LTMuMjdzMS4xOC0yLjY0IDEuNzEtMy45OGMuNTItMS4zNSAxLjA5LTIuNjkgMS45MS0zLjg5LjgyLTEuMTkgMS45My0yLjI0IDMuMjgtMi43OXoiIGNsaXAtcGF0aD0idXJsKCNsaW51eF9zdmdfX1cpIiBmaWx0ZXI9InVybCgjbGludXhfc3ZnX19YKSIvPjxwYXRoIGZpbGw9IiNmNWJkMGMiIGQ9Ik0zNS45OSAxNzQuNTdjMS4yMi0uNiAyLjY1LS43MiAzLjk4LS40NSAxLjMzLjI3IDIuNTcuOTIgMy42MiAxLjc3IDIuMDkgMS43IDMuNDMgNC4xMyA0LjY3IDYuNTEgMi44NCA1LjQ2IDUuNSAxMS4wNCA4LjkgMTYuMTkgMi40OCAzLjczIDUuMzMgNy4yIDcuODMgMTAuOTIgMy4zOSA1LjAzIDYuMTUgMTAuNTcgNy4yOSAxNi41Ljc2IDQgLjc0IDguMzEtMS4xOCAxMS45LTEuMjcgMi4zNy0zLjMyIDQuMzEtNS43NSA1LjUyLTIuNDIgMS4yMi01LjIxIDEuNzEtNy45MiAxLjQ3LTQuMjctLjM3LTguMTQtMi40Ny0xMi4xNi0zLjk0LTcuMTMtMi41OS0xNC44NC0zLjIyLTIyLjE4LTUuMTgtMy4wOS0uODItNi4xMy0xLjg5LTkuMjYtMi41NC0xLjM5LS4yOS0yLjgtLjUtNC4xMi0xLTEuMzItLjUtMi41Ny0xLjMzLTMuMjUtMi41NS0uNDctLjg2LS42My0xLjg2LS41Ni0yLjg0LjA3LS45Ny4zNi0xLjkyLjc0LTIuODMuNzctMS44IDEuOS0zLjQ2IDIuNDktNS4zMi44OC0yLjc1LjUyLTUuNzItLjE0LTguNTMtLjY1LTIuOC0xLjYtNS41NS0xLjg5LTguNDEtLjEzLTEuMjctLjEzLTIuNTcuMTctMy44Mi4yOS0xLjI1Ljg4LTIuNDUgMS44MS0zLjM0IDEuMi0xLjE1IDIuODgtMS43MyA0LjU2LTEuODkgMS42Ny0uMTYgMy4zNS4wNiA1LjAxLjMgMS42Ni4yNCAzLjM0LjUgNS4wMS40MiAxLjY4LS4wNyAzLjM5LS41MSA0LjctMS41NCAxLjMtMS4wMiAyLjEyLTIuNTMgMi41OS00LjA5LjQ3LTEuNTcuNjItMy4yLjgxLTQuODIuMTktMS42Mi40My0zLjI2IDEuMDYtNC43Ny42My0xLjUxIDEuNjktMi45IDMuMTctMy42NHoiIGNsaXAtcGF0aD0idXJsKCNsaW51eF9zdmdfX1cpIiBmaWx0ZXI9InVybCgjbGludXhfc3ZnX19ZKSIvPjxwYXRoIGZpbGw9InVybCgjbGludXhfc3ZnX19aKSIgZD0iTTUxLjIgMTg4LjIxYzIuMjUgNC4wNiAzLjYyIDguNzIgNS44NSAxMi44MiAyLjA1IDMuNzcgNC4zOCA3LjY1IDYuNDYgMTEuMTIuOTMgMS41NSAzLjA5IDMuOTMgNS4yNyA3LjYyIDEuOTggMy4zNCAzLjk4IDguMDEgNS4xIDkuNTgtLjY0LTEuODQtMS45Ni02Ljc3LTMuNTQtMTAuMjgtMS40Ny0zLjI4LTMuMTktNS4xNS00LjI0LTYuOTItMi4wOC0zLjQ3LTQuMzMtNi42LTYuNDctOS45MS0yLjk1LTQuNTctNS4yLTkuNjgtOC40My0xNC4wM3oiIGNsaXAtcGF0aD0idXJsKCNsaW51eF9zdmdfX1cpIiBmaWx0ZXI9InVybCgjbGludXhfc3ZnX19hYSkiIHN0eWxlPSJmaWxsOnVybCgjbGludXhfc3ZnX19aKSIvPjwvZz48ZyB0cmFuc2Zvcm09InRyYW5zbGF0ZSgzLjc1KSBzY2FsZSguMTg3NSkiPjxwYXRoIGZpbGw9InVybCgjbGludXhfc3ZnX19hYikiIGQ9Ik0xOTguNyAyMTUuNjFjLS40IDEuMzMtMS4wMiAyLjYyLTEuODEgMy44LTEuNzUgMi41OS00LjMgNC41NS02Ljg0IDYuMzUtNC4zMyAzLjA3LTguODUgNS44OS0xMi44OSA5LjM4LTIuNyAyLjM0LTUuMTcgNC45Ny03LjQ1IDcuNzMtMS45NSAyLjM2LTMuNzkgNC44NC02LjAyIDYuOTQtMi4yNSAyLjEyLTQuODkgMy44NC03Ljc0IDQuNzctMy40NyAxLjEzLTcuMTMgMS4wOC0xMC40Ny4yMi0yLjM0LS42LTQuNjMtMS42NC02LjA4LTMuNTMtMS40NS0xLjg5LTEuOTItNC40NC0yLjA5LTYuOTQtLjMtNC40Mi4yMy04LjkzLjcxLTEzLjQyLjQtMy43My43Ny03LjQ2LjkyLTExLjE4LjI3LTYuNzctLjE4LTEzLjQ3LTEuMDktMjAuMDUtLjE2LTEuMTEtLjMyLTIuMjItLjIzLTMuMzUuMDktMS4xNC40Ny0yLjMyIDEuMjctMy4yLjc0LS44MSAxLjc3LTEuMjkgMi43OS0xLjUyIDEuMDItLjI0IDIuMDYtLjI1IDMuMDktLjI4IDIuNDMtLjA2IDQuODYtLjIxIDcuMjUuMDEgMS41MS4xMyAyLjk5LjQxIDQuNDkuNTUgMi41MS4yNCA1LjEyLjEyIDcuNjQtLjYyIDIuNzEtLjggNS4yOS0yLjI5IDguMDUtMi43IDEuMTMtLjE3IDIuMjYtLjE1IDMuMzYuMDEgMS4xMi4xNSAyLjI0LjQ2IDMuMSAxLjE1LjY2LjUyIDEuMTQgMS4yMyAxLjUxIDEuOTkuNTYgMS4xNC45IDIuMzkgMS4xIDMuNjguMTcgMS4xNC4yNCAyLjMxLjUzIDMuNDEuNDggMS44MSAxLjU4IDMuMzUgMi44OSA0LjYgMS4zMiAxLjI1IDIuODUgMi4yNCA0LjM5IDMuMjIgMS41My45NyAzLjA3IDEuOTMgNC43IDIuNzMuNzcuMzggMS41Ni43MiAyLjI5IDEuMTUuNzQuNDQgMS40Mi45NyAxLjkxIDEuNjcuNjYuOTUuOTIgMi4yLjcyIDMuNDN6IiBjbGlwLXBhdGg9InVybCgjbGludXhfc3ZnX19IKSIgZmlsdGVyPSJ1cmwoI2xpbnV4X3N2Z19fYWMpIiBvcGFjaXR5PSIuMiIgc3R5bGU9ImZpbGw6dXJsKCNsaW51eF9zdmdfX2FiKSIvPjxwYXRoIGlkPSJsaW51eF9zdmdfX3kiIGZpbGw9InVybCgjbGludXhfc3ZnX19hZCkiIGQ9Ik0yMTMuNDcgMjIyLjkyYy0yLjI2IDIuNjgtNS40IDQuNDUtOC41MyA2LjA1LTUuMzMgMi43MS0xMC44NiA1LjEtMTUuODcgOC4zNy0zLjM2IDIuMTktNi40NiA0Ljc2LTkuMzYgNy41My0yLjQ4IDIuMzctNC44MyA0LjktNy42MSA2LjkxLTIuODEgMi4wMy02LjA1IDMuNS05LjQ4IDQuMDEtLjk1LjE0LTEuOS4yMS0yLjg2LjIxLTMuMjQgMC02LjQ4LS43OC05LjQ2LTIuMDgtMi43LTEuMTctNS4zLTIuODYtNi44Ni01LjM2LTEuNTYtMi41Mi0xLjkyLTUuNTktMS45Mi04LjU2LS4wMS01LjIzLjk2LTEwLjQxIDEuODctMTUuNTcuNzYtNC4yOSAxLjQ4LTguNTggMS45NS0xMi45MS44NS03Ljg2Ljg0LTE1LjgxLjI4LTIzLjcxLS4xLTEuMzItLjIxLTIuNjUtLjAxLTMuOTYuMi0xLjMxLjc0LTIuNjIgMS43NC0zLjQ4LjkzLS44IDIuMTctMS4xNiAzLjQtMS4yMiAxLjIyLS4wNyAyLjQ0LjEyIDMuNjUuMyAyLjg1LjQyIDUuNzMuNzQgOC41MiAxLjQ4IDEuNzYuNDYgMy40OCAxLjA4IDUuMjMgMS41NiAyLjk0Ljc5IDYuMDEgMS4xNyA5LjAyLjgyIDMuMjUtLjM4IDYuNDEtMS42IDkuNjgtMS41MiAxLjM0LjAzIDIuNjcuMjggMy45NS42OSAxLjMuNDEgMi41OSAxIDMuNTUgMS45OC43My43NCAxLjI0IDEuNjcgMS42MiAyLjY0LjU3IDEuNDQuODggMi45OCAxLjAxIDQuNTIuMTEgMS4zNy4wOSAyLjc2LjM1IDQuMTEuNDMgMi4yMSAxLjYgNC4yNCAzLjA0IDUuOTcgMS40NSAxLjc0IDMuMTggMy4yMSA0LjkxIDQuNjYgMS43MyAxLjQ1IDMuNDYgMi44OSA1LjMyIDQuMTYuODcuNiAxLjc3IDEuMTYgMi42IDEuODEuODMuNjYgMS41OSAxLjQyIDIuMTEgMi4zNC40NS44MS42OSAxLjcyLjY5IDIuNjUgMCAuNTItLjA3IDEuMDQtLjIzIDEuNTYtLjQ1IDEuNDMtMS4yOCAyLjgyLTIuMyA0LjA0eiIgc3R5bGU9ImZpbGw6dXJsKCNsaW51eF9zdmdfX2FkKSIvPjxwYXRoIGZpbGw9IiNjZDg5MDciIGQ9Ik0yMTMuMjEgMjE2LjEyYy0uNTMgMS4zMy0xLjI4IDIuNTgtMi4yMiAzLjY3LTIuMDcgMi40Mi00LjkzIDQuMDEtNy43OCA1LjQ0LTQuODggMi40NC05LjkyIDQuNTgtMTQuNSA3LjUyLTMuMDYgMS45Ny01LjkgNC4yOC04LjU1IDYuNzgtMi4yNiAyLjEzLTQuNDEgNC40MS02Ljk1IDYuMjEtMi41NyAxLjgzLTUuNTMgMy4xNC04LjY1IDMuNi0zLjguNTYtNy43Mi0uMTYtMTEuMjUtMS42Ny0yLjQ2LTEuMDYtNC44NC0yLjU2LTYuMjctNC44My0xLjQyLTIuMjYtMS43NS01LjAyLTEuNzUtNy42OS0uMDItNC43MS44Ny05LjM3IDEuNzEtMTQgLjctMy44NSAxLjM2LTcuNzEgMS43OC0xMS42Ljc2LTcuMDguNzMtMTQuMjIuMjUtMjEuMzItLjA4LTEuMTktLjE3LTIuMzkuMDEtMy41Ny4xOC0xLjE4LjY3LTIuMzUgMS41Ny0zLjEzLjg1LS43MyAxLjk5LTEuMDUgMy4xMS0xLjEgMS4xMS0uMDYgMi4yMi4xMiAzLjMzLjI4IDIuNjEuMzggNS4yMy42NyA3Ljc4IDEuMzMgMS42MS40MiAzLjE4Ljk4IDQuNzggMS40IDIuNjguNzIgNS40OSAxLjA2IDguMjQuNzQgMi45Ny0uMzQgNS44NS0xLjQ0IDguODMtMS4zNyAxLjIzLjAzIDIuNDQuMjYgMy42MS42MiAxLjE5LjM3IDIuMzcuOSAzLjI1IDEuNzguNjYuNjcgMS4xMSAxLjUxIDEuNDggMi4zOC41MyAxLjI5Ljg5IDIuNjcuOTEgNC4wNy4wMyAxLjQ2LS4yOCAyLjkyLS4wOSA0LjM3LjE2IDEuMTcuNjYgMi4yOCAxLjMgMy4yOC42MyAxIDEuNCAxLjkxIDIuMTcgMi44MSAxLjQ4IDEuNzUgMi45NiAzLjUzIDQuODIgNC44NyAyLjExIDEuNTMgNC42MiAyLjQzIDYuOCAzLjg1LjY1LjQzIDEuMjguOTEgMS43NCAxLjU0Ljc4IDEuMDYuOTggMi41LjU0IDMuNzR6IiBjbGlwLXBhdGg9InVybCgjbGludXhfc3ZnX19hZSkiIGZpbHRlcj0idXJsKCNsaW51eF9zdmdfX2FmKSIvPjxwYXRoIGZpbGw9IiNmNWMwMjEiIGQ9Ik0yMTIuOTEgMjE0LjYxYy0uNiAxLjM1LTEuMzcgMi42LTIuMjggMy43MS0yLjEyIDIuNTgtNC45OSA0LjM1LTggNS40OS00Ljk3IDEuODgtMTAuMzkgMi4xMy0xNS4yNiA0LjI3LTIuOTcgMS4zLTUuNjUgMy4yNi04LjM2IDUuMTItMi4xOCAxLjQ5LTQuNDIgMi45NC02LjgyIDMuOTgtMi43MiAxLjE5LTUuNiAxLjg1LTguNSAyLjMyLTEuODQuMjktMy43MS41MS01LjU3LjQxLTEuODYtLjEtMy43Mi0uNTQtNS4zNy0xLjQ5LTEuMjQtLjcyLTIuMzYtMS43NS0zLjAzLTMuMS0uNzMtMS40OS0uODYtMy4yNC0uODUtNC45NC4wNS00LjUgMS4wMi04Ljk2Ljk5LTEzLjQ3LS4wMy0zLjkzLS44MS03LjgtMS4wMy0xMS43Mi0uNDMtNy41NCAxLjE5LTE1LjItLjI0LTIyLjU5LS4yMi0xLjE5LS41My0yLjM3LS41Mi0zLjU4LjAxLS42LjEtMS4yMS4zMS0xLjc3LjIyLS41NS41Ni0xLjA2IDEuMDEtMS40Mi4zOS0uMjkuODQtLjQ3IDEuMzEtLjU2LjQ2LS4wOC45NC0uMDYgMS40MS4wMS45My4xNSAxLjgyLjUxIDIuNzMuNzggMi42Ljc4IDUuMzUuNzYgOCAxLjM1IDEuNjYuMzYgMy4yNi45NyA0LjkxIDEuNDEgMi43NS43NiA1LjYzIDEuMDggOC40Ni43NSAzLjA0LS4zNiA2LjAxLTEuNDYgOS4wNy0xLjM4IDEuMjYuMDMgMi41LjI2IDMuNzEuNjJzMi40Mi44NyAzLjM0IDEuOGMuNjUuNjcgMS4xMyAxLjUyIDEuNTEgMi40LjU3IDEuMjkuOTYgMi42OS45NSA0LjExLS4wMS43NC0uMTIgMS40Ny0uMTkgMi4yMS0uMDYuNzQtLjA4IDEuNDkuMDkgMi4yLjE4LjcyLjU1IDEuMzcuOTcgMS45Ni40Mi41OS45IDEuMTIgMS4zNCAxLjcgMS4yMiAxLjYxIDIuMSAzLjQ5IDMuMDUgNS4zLjk1IDEuODEgMi4wMiAzLjYgMy41MyA0LjkxIDIuMDUgMS43NyA0LjcgMi40OCA2Ljk5IDMuODkuNjcuNDEgMS4zMS44OSAxLjc4IDEuNTUuMzguNTIuNjMgMS4xNS43MyAxLjgxLjA5LjY1LjAzIDEuMzQtLjE3IDEuOTZ6IiBjbGlwLXBhdGg9InVybCgjbGludXhfc3ZnX19hZSkiIGZpbHRlcj0idXJsKCNsaW51eF9zdmdfX2FnKSIvPjxwYXRoIGZpbGw9InVybCgjbGludXhfc3ZnX19haCkiIGQ9Ik0xNDguMDggMTgxLjU4YzIuODItLjc2IDUuMjIgMS4zOCA3LjI3IDIuOTkgMS4zMiAxLjEzIDMuMjQuODUgNC44Ni45IDIuNjktLjA5IDUuMzYuNDUgOC4wNS4xMiA1LjMtLjQ1IDEwLjQ5LTEuNzUgMTUuODEtMS45NyAyLjU0LS4xNiA1LjQtLjMxIDcuNTkgMS4xNy44OS42MiAyLjIgMy4yMyAzLjA3IDIuMjUtLjM2LTIuNzQtMi4zOS01LjM5LTUuMTEtNi4xMi0yLjE0LS4zNC00LjMuMjUtNi40Ni4wNi02LjM5LS4xNS0xMi43NS0xLjM0LTE5LjE2LTEtNC40Ni4wNC04LjkxLS4xNy0xMy4zNy0uMzQtMS43NS0uMzYtMi4zNyAxLjE5LTMuMzIgMS43OS4yNS4xOS4zNC4yNS43Ny4xNXoiIGNsaXAtcGF0aD0idXJsKCNsaW51eF9zdmdfX2FlKSIgZmlsdGVyPSJ1cmwoI2xpbnV4X3N2Z19fYWkpIiBzdHlsZT0iZmlsbDp1cmwoI2xpbnV4X3N2Z19fYWgpIi8+PC9nPjxnIHRyYW5zZm9ybT0idHJhbnNsYXRlKDMuNzUpIHNjYWxlKC4xODc1KSI+PHBhdGggZmlsbD0idXJsKCNsaW51eF9zdmdfX2FqKSIgZD0iTTE4NS40OSAxODcuNjFjLS40OC0uOTUtMS4zNi0xLjY2LTIuMzUtMi4wNy0uOTgtLjQxLTIuMDYtLjU1LTMuMTMtLjU0LTIuMTMuMDItNC4yNS41Ny02LjM4LjM5LTEuNzktLjE2LTMuNDktLjgzLTUuMjQtMS4yNi0xLjgxLS40NC0zLjczLS42MS01LjUyLS4xMi0xLjkyLjUyLTMuNjEgMS44MS00LjY3IDMuNDktLjk0IDEuNDgtMS4zOCAzLjIzLTEuNTIgNC45OC0uMTQgMS43NS4wMSAzLjUuMTkgNS4yNS4xMiAxLjI2LjI3IDIuNTIuNTcgMy43NS4zMSAxLjIzLjc4IDIuNDMgMS41MiAzLjQ2IDEuMDcgMS40OCAyLjY2IDIuNTQgNC4zNyAzLjE3IDIuOCAxLjAzIDUuOTguOTggOC43My0uMTUgNC44OC0yLjEyIDkuMDEtNS45MiAxMS41Mi0xMC42LjkxLTEuNjggMS42MS0zLjQ3IDIuMDYtNS4zMS4xOC0uNzQuMzItMS40OS4zMi0yLjI1LjAxLS43NS0uMTItMS41Mi0uNDctMi4xOXoiIGNsaXAtcGF0aD0idXJsKCNsaW51eF9zdmdfX2FlKSIgZmlsdGVyPSJ1cmwoI2xpbnV4X3N2Z19fYWspIiBvcGFjaXR5PSIuMzUiIHN0eWxlPSJmaWxsOnVybCgjbGludXhfc3ZnX19haikiLz48cGF0aCBmaWxsPSJ1cmwoI2xpbnV4X3N2Z19fYWwpIiBkPSJNMTg1LjQ5IDE4NC44OWMtLjQ4LS42OS0xLjM2LTEuMi0yLjM1LTEuNS0uOTgtLjMtMi4wNi0uMzktMy4xMy0uMzktMi4xMy4wMi00LjI1LjQyLTYuMzguMjgtMS43OS0uMTEtMy40OS0uNi01LjI0LS45LTEuODEtLjMyLTMuNzMtLjQ1LTUuNTItLjA5LTEuOTIuMzctMy42MSAxLjMtNC42NyAyLjUyLS45NCAxLjA3LTEuMzggMi4zNC0xLjUyIDMuNi0uMTQgMS4yNi4wMSAyLjUzLjE5IDMuNzkuMTIuOTEuMjcgMS44My41NyAyLjcyLjMxLjg5Ljc4IDEuNzYgMS41MiAyLjUgMS4wNyAxLjA3IDIuNjYgMS44MyA0LjM3IDIuMjkgMi44Ljc1IDUuOTguNzEgOC43My0uMTEgNC44OC0xLjUzIDkuMDEtNC4yOCAxMS41Mi03LjY2LjkxLTEuMjIgMS42MS0yLjUxIDIuMDYtMy44NC4xOC0uNTQuMzItMS4wOC4zMi0xLjYyLjAxLS41NS0uMTItMS4xMS0uNDctMS41OXoiIGNsaXAtcGF0aD0idXJsKCNsaW51eF9zdmdfX2FlKSIgZmlsdGVyPSJ1cmwoI2xpbnV4X3N2Z19fYW0pIiBvcGFjaXR5PSIuMzUiIHN0eWxlPSJmaWxsOnVybCgjbGludXhfc3ZnX19hbCkiLz48cGF0aCBpZD0ibGludXhfc3ZnX196IiBmaWxsPSIjMDIwMjA0IiBkPSJNMTg5LjU1IDE3OC43MmMtLjM1LS45NS0uOTctMS43OS0xLjcyLTIuNDctLjc1LS42OC0xLjY0LTEuMi0yLjU3LTEuNi0xLjg2LS43OS0zLjg5LTEuMDktNS44OS0xLjQ2LTEuODctLjM1LTMuNzQtLjc4LTUuNjItMS4xLTEuOTYtLjMzLTMuOTgtLjU1LTUuOTItLjExLTEuNjkuMzgtMy4yNiAxLjI2LTQuNTQgMi40My0xLjI4IDEuMTctMi4yOCAyLjYzLTMgNC4yMS0xLjI3IDIuNzktMS42NyA1LjkyLTEuNDMgOC45Ny4xOCAyLjI3Ljc2IDQuNjEgMi4yNSA2LjMyIDEuMjEgMS4zOSAyLjkyIDIuMjYgNC42OCAyLjc4IDMuMDQuOSA2LjM1Ljg1IDkuMzYtLjEzYTI0LjcgMjQuNyAwIDAgMCAxMi4zNS05LjI5Yy45OC0xLjQzIDEuODItMi45OCAyLjItNC42Ni4yOS0xLjI4LjMtMi42Ni0uMTUtMy44OXoiLz48ZGVmcz48cGF0aCBpZD0ibGludXhfc3ZnX19hbiIgZD0iTTE2OC44OSAxNzEuMDdjLS40Ny4wMy0uOTMuMDgtMS40LjE3LTIuOTkuNTMtNS43MyAyLjQyLTcuMjcgNS4wMy0xLjA5IDEuODUtMS41OCA0LjAzLTEuNDMgNi4xNy4wNy0xLjUuNDYtMi45NyAxLjE5LTQuMjggMS4yMy0yLjIzIDMuNDctMy45MSA1Ljk4LTQuMzcgMS41NC0uMjggMy4xMy0uMTEgNC42OC4wOCAxLjUuMTkgMyAuMzkgNC40Ny43IDIuMjguNSA0LjUzIDEuMjYgNi40NCAyLjU5LjQ0LjMxLjg2LjY2IDEuMjEgMS4wOC4zNS40MS42Mi44OS43MyAxLjQyLjE1Ljc4LS4wNyAxLjYtLjQ2IDIuMjktLjM5LjctLjkyIDEuMy0xLjQ4IDEuODYtLjQ2LjQ2LS45NC44OS0xLjQzIDEuMzIgMi4yMS0uNDMgNC40NC0xLjAzIDYuMjgtMi4zMS43Ny0uNTUgMS40OC0xLjIgMS45NC0yLjAyLjQ2LS44My42NS0xLjgzLjQzLTIuNzUtLjE2LS42Mi0uNS0xLjE5LS45Mi0xLjY3LS40Mi0uNDgtLjkzLS44Ny0xLjQ1LTEuMjRhMTcuMjY2IDE3LjI2NiAwIDAgMC03LjgxLTIuOTljLTEuOC0uMzMtMy42MS0uNjEtNS40Mi0uODMtMS40MS0uMTgtMi44Ni0uMzMtNC4yOC0uMjV6Ii8+PC9kZWZzPjx1c2UgeGxpbms6aHJlZj0iI2xpbnV4X3N2Z19fYW4iIGZpbGw9InVybCgjbGludXhfc3ZnX19hbykiIGNsaXAtcGF0aD0idXJsKCNsaW51eF9zdmdfX2FwKSIgZmlsdGVyPSJ1cmwoI2xpbnV4X3N2Z19fYXEpIiBocmVmPSIjbGludXhfc3ZnX19hbiIgc3R5bGU9ImZpbGw6dXJsKCNsaW51eF9zdmdfX2FvKSIvPjx1c2UgeGxpbms6aHJlZj0iI2xpbnV4X3N2Z19fYW4iIGZpbGw9InVybCgjbGludXhfc3ZnX19hcikiIGNsaXAtcGF0aD0idXJsKCNsaW51eF9zdmdfX2FwKSIgZmlsdGVyPSJ1cmwoI2xpbnV4X3N2Z19fYXEpIiBocmVmPSIjbGludXhfc3ZnX19hbiIgc3R5bGU9ImZpbGw6dXJsKCNsaW51eF9zdmdfX2FyKSIvPjwvZz48ZyB0cmFuc2Zvcm09InRyYW5zbGF0ZSgzLjc1KSBzY2FsZSguMTg3NSkiPjxwYXRoIGlkPSJsaW51eF9zdmdfX0EiIGZpbGw9InVybCgjbGludXhfc3ZnX19hcykiIGQ9Ik04NC40NSAzOC4yOGMtMS41My4wOC0zIC43OS00LjEyIDEuODQtMS4xMyAxLjA1LTEuOTIgMi40My0yLjQxIDMuODgtLjk3IDIuOTItLjc1IDYuMDgtLjUzIDkuMTUuMiAyLjc3LjQxIDUuNiAxLjQ1IDguMTguNTIgMS4zIDEuMjUgMi41MSAyLjIyIDMuNTEuOTcuOTkgMi4yIDEuNzYgMy41NSAyLjA5IDEuMjYuMzIgMi42Mi4yNiAzLjg2LS4xMyAxLjI1LS40IDIuMzgtMS4xMSAzLjMyLTIuMDIgMS4zNi0xLjMzIDIuMjctMy4wNyAyLjgtNC45LjUzLTEuODMuNjgtMy43NS42NS01LjY2LS4wNC0yLjM4LS4zNS00Ljc3LTEuMDktNy4wMy0uNzUtMi4yNi0xLjk0LTQuNC0zLjYtNi4xMS0uOC0uODMtMS43Mi0xLjU1LTIuNzUtMi4wNi0xLjA0LS41MS0yLjItLjgtMy4zNS0uNzR6IiBzdHlsZT0iZmlsbDp1cmwoI2xpbnV4X3N2Z19fYXMpIi8+PHBhdGggaWQ9ImxpbnV4X3N2Z19fQiIgZmlsbD0iIzAyMDIwNCIgZD0iTTgwLjc1IDUwLjk5Yy0uMzIgMS45NC0uMzMgMy45Ny4zMyA1LjgxLjQ0IDEuMjIgMS4xNyAyLjMzIDIuMDUgMy4yOC41Ny42MiAxLjIzIDEuMTggMS45OSAxLjU1Ljc3LjM3IDEuNjUuNTIgMi40OC4zMi43Ni0uMTkgMS40Mi0uNjggMS45MS0xLjI5cy44Mi0xLjM0IDEuMDUtMi4wOWMuNjktMi4yMS41OC00LjYyLS4xMS02LjgzLS40OS0xLjYxLTEuMzItMy4xNi0yLjYtNC4yNC0uNjItLjUyLTEuMzQtLjkzLTIuMTItMS4xMS0uNzgtLjE5LTEuNjMtLjE0LTIuMzYuMTktLjgxLjM3LTEuNDQgMS4wNy0xLjg1IDEuODYtLjQxLjc5LS42MiAxLjY3LS43NyAyLjU1eiIvPjxwYXRoIGZpbGw9InVybCgjbGludXhfc3ZnX19hdCkiIGQ9Ik04NC44NCA0OS41OWMuMjEuNTUuOTEuNzUgMS4zIDEuMTkuMzcuNDIuNzYuODcuOTcgMS40LjM5IDEuMDEtLjM5IDIuNTEuNDMgMy4yMy4yNS4yMi43Ny4yMyAxLjAyIDAgLjk5LS45Ljc3LTIuNzEuMzgtMy45OS0uMzYtMS4xNS0xLjIzLTIuMjUtMi4zMS0yLjgtLjUtLjI2LTEuMjUtLjQ3LTEuNjgtLjExLS4yNy4yNC0uMjQuNzQtLjExIDEuMDh6IiBjbGlwLXBhdGg9InVybCgjbGludXhfc3ZnX19hdSkiIGZpbHRlcj0idXJsKCNsaW51eF9zdmdfX2F2KSIgc3R5bGU9ImZpbGw6dXJsKCNsaW51eF9zdmdfX2F0KSIvPjxwYXRoIGZpbGw9InVybCgjbGludXhfc3ZnX19hdykiIGQ9Ik04MS4xNCA0NC40NmMyLjMyLTEuMzggNS4xMy0xLjcgNy44Mi0xLjQ1IDIuNjguMjYgNS4yNyAxLjA0IDcuODcgMS43NSAxLjkxLjUyIDMuODQgMSA1LjYzIDEuODQgMS43OC44NCAzLjQ0IDIuMDggNC40MyAzLjguMTYuMjcuMjkuNTYuNDYuODMuMTcuMjcuMzcuNTIuNjIuNzEuMjUuMTkuNTcuMzIuODguMy4xNi0uMDEuMzItLjA1LjQ1LS4xMy4xNC0uMDguMjYtLjIuMzMtLjM0LjA4LS4xNi4xMS0uMzUuMS0uNTMtLjAxLS4xOC0uMDUtLjM2LS4xLS41NC0uNjUtMi4zNy0yLjE5LTQuMzgtMy4zNS02LjU1LS43LTEuMy0xLjI4LTIuNjYtMS45OC0zLjk2LTIuNDMtNC40NS02LjQyLTcuOTQtMTAuOTUtMTAuMjEtNC41My0yLjI3LTkuNTktMy4zNi0xNC42NS0zLjY1LTUuODYtLjM1LTExLjczLjM1LTE3LjUxIDEuMzctMi41MS40NC01LjA2Ljk2LTcuMjcgMi4yMS0xLjExLjYyLTIuMTMgMS40Mi0yLjkyIDIuNDItLjguOTktMS4zNiAyLjE4LTEuNTUgMy40NC0uMTcgMS4yMi4wMSAyLjQ3LjQ0IDMuNjIuNDIgMS4xNSAxLjA4IDIuMiAxLjg2IDMuMTUgMS41NCAxLjkxIDMuNTMgMy4zOSA1LjM2IDUuMDMgMS44MyAxLjYzIDMuNTIgMy40NCA1LjU3IDQuNzkgMS4wMi42OCAyLjEzIDEuMjQgMy4zMSAxLjU3IDEuMTguMzMgMi40NC40MiAzLjY0LjE3IDEuMjQtLjI1IDIuNC0uODYgMy40MS0xLjY0IDEuMDEtLjc3IDEuODgtMS43IDIuNzEtMi42NiAxLjY2LTEuOTMgMy4yMS00LjA0IDUuMzktNS4zNHoiIGNsaXAtcGF0aD0idXJsKCNsaW51eF9zdmdfX2F4KSIgc3R5bGU9ImZpbGw6dXJsKCNsaW51eF9zdmdfX2F3KSIvPjxwYXRoIGZpbGw9InVybCgjbGludXhfc3ZnX19heSkiIGQ9Ik05MC43NyAzNi41N2MyLjE2IDIuMDIgMy43NiA0LjUyIDQuODUgNy4xNi0uNDgtMi45MS0xLjIzLTUuMjYtMy4xMy03LjE2LTEuMTYtMS4wOS0yLjQ5LTIuMDUtMy45OC0yLjcyLTEuMzItLjU5LTIuNzctLjk2LTMuNjEtLjk3LS44My0uMDItMS4wMyAwLTEuMi4wMS0uMTguMDEtLjMxLjAxLjIzLjA4LjU0LjA2IDEuNzUuMzkgMy4wNS45NyAxLjMuNTggMi42MiAxLjU0IDMuNzkgMi42M3oiIGZpbHRlcj0idXJsKCNsaW51eF9zdmdfX2F6KSIgc3R5bGU9ImZpbGw6dXJsKCNsaW51eF9zdmdfX2F5KSIvPjwvZz48ZyB0cmFuc2Zvcm09InRyYW5zbGF0ZSgzLjc1KSBzY2FsZSguMTg3NSkiPjxwYXRoIGlkPSJsaW51eF9zdmdfX0MiIGZpbGw9InVybCgjbGludXhfc3ZnX19hQSkiIGQ9Ik0xMTEuNjEgMzguMjhjLTIuMzkgMS42NS00LjQgMy45NC01LjM4IDYuNjgtMS4yNCAzLjQ1LS43NyA3LjMxLjQzIDEwLjc3IDEuMjIgMy41NSAzLjI3IDYuOTMgNi4zNiA5LjA2IDEuNTQgMS4wNyAzLjMzIDEuOCA1LjE5IDIuMDIgMS44Ny4yMiAzLjgtLjA5IDUuNDctLjk1IDIuMDItMS4wNiAzLjU3LTIuOTEgNC41My00Ljk4Ljk2LTIuMDggMS4zNy00LjM3IDEuNS02LjY2LjE2LTIuOS0uMTItNS44Ni0xLjA4LTguNjEtMS4wNC0yLjk5LTIuOTItNS43NS01LjU4LTcuNDctMS4zMi0uODYtMi44My0xLjQ1LTQuNC0xLjY3YTkuNDA1IDkuNDA1IDAgMCAwLTQuNjcuNTJjLS44NC4zMy0xLjYyLjc4LTIuMzcgMS4yOXoiIHN0eWxlPSJmaWxsOnVybCgjbGludXhfc3ZnX19hQSkiLz48cGF0aCBpZD0ibGludXhfc3ZnX19EIiBmaWxsPSIjMDIwMjA0IiBkPSJNMTE3LjE0IDQ1LjUyYy0uOS4wNi0xLjc4LjM3LTIuNTUuODUtLjc2LjQ4LTEuNDEgMS4xMy0xLjkyIDEuODgtMS4wMyAxLjQ5LTEuNDggMy4zMS0xLjU1IDUuMTItLjA1IDEuMzUuMSAyLjcyLjU1IDQgLjQ1IDEuMjggMS4yIDIuNDcgMi4yNSAzLjMzIDEuMDcuODkgMi40MiAxLjQyIDMuODEgMS40OSAxLjM5LjA2IDIuNzktLjM0IDMuOTMtMS4xMy45MS0uNjMgMS42NC0xLjUgMi4xNi0yLjQ4LjUyLS45Ny44NC0yLjA1Ljk4LTMuMTUuMjUtMS45My0uMDMtMy45NS0uOTMtNS42OS0uODktMS43NC0yLjQxLTMuMTctNC4yNC0zLjg0LS44LS4yOS0xLjY1LS40NC0yLjQ5LS4zOHoiLz48cGF0aCBmaWxsPSJ1cmwoI2xpbnV4X3N2Z19fYUIpIiBkPSJNMTIyLjcxIDUzLjM2YzEtMS0uNzEtMy42NS0yLjA1LTQuNzQtLjk3LS43OC0zLjc4LTEuNjEtMy42Ni0uNzUuMTIuODUgMS4zOSAxLjk1IDIuMjMgMi43OSAxLjA1IDEuMDMgMyAzLjE4IDMuNDggMi43eiIgY2xpcC1wYXRoPSJ1cmwoI2xpbnV4X3N2Z19fYUMpIiBmaWx0ZXI9InVybCgjbGludXhfc3ZnX19hRCkiIHN0eWxlPSJmaWxsOnVybCgjbGludXhfc3ZnX19hQikiLz48cGF0aCBmaWxsPSJ1cmwoI2xpbnV4X3N2Z19fYUUpIiBkPSJNMTAyLjU2IDQ3LjAxYzIuMDYtMS43MSA0LjQ1LTMuMDEgNy0zLjggNS4yNS0xLjYyIDExLjItLjk4IDE1Ljg0IDEuOTcgMS42IDEuMDEgMy4wMyAyLjI3IDQuNTIgMy40NSAxLjQ4IDEuMTcgMy4wNiAyLjI3IDQuODUgMi45Ljk3LjM0IDIgLjU0IDMuMDIuNDMuOTItLjA5IDEuODEtLjQ0IDIuNTctLjk2Ljc2LS41MyAxLjQtMS4yMyAxLjg4LTIuMDIuOTYtMS41OCAxLjI3LTMuNSAxLjEtNS4zNC0uMzMtMy42OS0yLjQxLTYuOTQtNC4xNS0xMC4yMS0uNTUtMS4wMi0xLjA3LTIuMDYtMS43My0zLjAxLTIuMDEtMi45My01LjIzLTQuODYtOC42LTUuOTktMy4zNy0xLjEzLTYuOTMtMS41NC0xMC40Ni0xLjk4LTEuNTgtLjItMy4xNy0uNDEtNC43NC0uMjItMS44MS4yMi0zLjUxLjk1LTUuMjggMS40LS44NC4yMi0xLjY5LjM3LTIuNTIuNjEtLjgzLjI0LTEuNjUuNTctMi4zMyAxLjExLS45OC43OS0xLjYgMS45OC0xLjg3IDMuMjEtLjI3IDEuMjQtLjIxIDIuNTItLjAxIDMuNzcuMzkgMi41IDEuMzMgNC45MyAxLjI0IDcuNDYtLjA2IDEuNzMtLjYxIDMuNDQtLjU0IDUuMTcuMDIuNTEuMTIgMS41NS4yMSAyLjA1eiIgY2xpcC1wYXRoPSJ1cmwoI2xpbnV4X3N2Z19fYUYpIiBzdHlsZT0iZmlsbDp1cmwoI2xpbnV4X3N2Z19fYUUpIi8+PHBhdGggZmlsbD0idXJsKCNsaW51eF9zdmdfX2FHKSIgZD0iTTExOS45MyAzMS4xOGMtLjQxLjUyLS43OCAxLjA4LTEuMDcgMS43IDEuODUuNCAzLjYxIDEuMTYgNS4xOSAyLjIxIDMuMDYgMi4wMyA1LjM4IDQuOTkgNy4wMSA4LjI5LjM4LS40Mi43Mi0uODcgMS4wMi0xLjM3LTEuNjQtMy40NC00LTYuNTUtNy4xNi04LjY1LTEuNTItMS0zLjIxLTEuNzctNC45OS0yLjE4eiIgZmlsdGVyPSJ1cmwoI2xpbnV4X3N2Z19fYUgpIiBzdHlsZT0iZmlsbDp1cmwoI2xpbnV4X3N2Z19fYUcpIi8+PC9nPjxwYXRoIGZpbGwtb3BhY2l0eT0iLjI1OSIgZD0iTTgxLjEyIDg5LjMzYzEuNDcgNC4yNiA0LjQyIDcuODkgNy45MiAxMC43MiAxLjE2Ljk1IDIuMzkgMS44MiAzLjc2IDIuNDMgMS4zNi42MiAyLjg3Ljk3IDQuMzYuODQgMS40Ni0uMTIgMi44NS0uNyA0LjEzLTEuNDIgMS4yOC0uNzIgMi40Ni0xLjU5IDMuNy0yLjM3IDIuMTItMS4zNSA0LjM5LTIuNDQgNi42LTMuNjQgMi42NS0xLjQ1IDUuMjMtMy4xIDcuNDYtNS4xNCAxLjAzLS45MyAxLjk4LTEuOTUgMy4xMS0yLjc1IDEuMTMtLjgxIDIuNDktMS4zOSAzLjg3LTEuMjkgMS4wNC4wNyAyLjAxLjUxIDMuMDMuNzMuNTEuMTEgMS4wMy4xNiAxLjU1LjA4LjUxLS4wOCAxLjAxLS4yOSAxLjM3LS42Ny40NC0uNDYuNjQtMS4xMi42MS0xLjc2LS4wMi0uNjMtLjI0LTEuMjUtLjU0LTEuODEtLjU5LTEuMTMtMS40OS0yLjEtMS44OS0zLjMxLS4zNi0xLjA4LS4yOS0yLjI0LS4yNi0zLjM3LjAzLTEuMTQuMDEtMi4zMi0uNTEtMy4zMy0uNC0uNzYtMS4wNy0xLjM3LTEuODMtMS43Ny0uNzYtLjQxLTEuNjItLjYyLTIuNDgtLjctMS43Mi0uMTYtMy40NC4xOC01LjE3LjI3LTIuMjguMTMtNC41OC0uMTUtNi44Ny0uMDItMi44NS4xOC01LjY1IDEtOC41MSAxLjAxLTMuMjYuMDEtNi41Mi0xLjA2LTkuNzQtLjU1LTEuMzkuMjItMi43MS43Mi00LjAzIDEuMTYtMS4zMy40NS0yLjcuODQtNC4xLjgyLTEuNTktLjAzLTMuMTMtLjU4LTQuNzItLjY5LS43OS0uMDYtMS42IDAtMi4zNS4yOC0uNzQuMjgtMS40MS43OS0xLjc4IDEuNS0uMjEuNC0uMzEuODYtLjMzIDEuMzEtLjAyLjQ2LjA0LjkxLjE1IDEuMzYuMjIuODguNjMgMS43MS45NiAyLjU1IDEuMiAzLjA3IDEuNDYgNi40MiAyLjUzIDkuNTN6IiBjbGlwLXBhdGg9InVybCgjbGludXhfc3ZnX19IKSIgZmlsdGVyPSJ1cmwoI2xpbnV4X3N2Z19fYUkpIiB0cmFuc2Zvcm09InRyYW5zbGF0ZSgzLjc1KSBzY2FsZSguMTg3NSkiLz48cGF0aCBkPSJNNzcuMDMgNzcuMmMyLjg1IDEuNzYgNS40MSAzLjkzIDcuNTYgNi4zOSAxLjk5IDIuMjkgMy42OCA0Ljg5IDYuMjkgNi41OCAxLjgzIDEuMiA0LjA0IDEuODcgNi4yOCAyLjA4IDIuNjMuMjQgNS4yOS0uMTUgNy44My0uODQgMi4zNS0uNjMgNC42Mi0xLjUzIDYuNy0yLjcxIDMuOTctMi4yNSA3LjI4LTUuNTUgMTEuNjUtNy4wMy45NS0uMzMgMS45NC0uNTYgMi44Ni0uOTYuOTItLjM5IDEuNzktLjk5IDIuMjMtMS44My40Mi0uODIuNC0xLjc1LjU0LTIuNjQuMTUtLjk2LjQ4LTEuODguNjYtMi44My4xOC0uOTUuMi0xLjk2LS4yNC0yLjgzLS4zNy0uNzItMS4wNC0xLjI5LTEuODEtMS42Ni0uNzctLjM2LTEuNjQtLjUyLTIuNTEtLjU2LTEuNzItLjA4LTMuNDMuMzMtNS4xNi40Ny0yLjI4LjE5LTQuNTgtLjA4LTYuODctLjAxLTIuODUuMDgtNS42Ni42Ny04LjUxLjgtMy4yNS4xNC02LjQ5LS4zNC05Ljc0LS40NC0xLjQxLS4wNS0yLjgzLS4wMy00LjIxLjItMS4zOS4yMi0yLjc1LjY1LTMuOTIgMS4zNy0xLjE0LjY5LTIuMDcgMS42NC0zLjExIDIuNDUtLjUyLjQxLTEuMDguNzgtMS42OCAxLjA3LS42MS4yOC0xLjI4LjQ4LTEuOTYuNTEtLjM1LjAxLS43MS0uMDEtMS4wNS4wNC0uNTkuMDgtMS4xMy4zOS0xLjQ3LjgzLS4zNC40NS0uNDcgMS4wMi0uMzYgMS41NXoiIGNsaXAtcGF0aD0idXJsKCNsaW51eF9zdmdfX0gpIiBmaWx0ZXI9InVybCgjbGludXhfc3ZnX19hSikiIG9wYWNpdHk9Ii4zIiB0cmFuc2Zvcm09InRyYW5zbGF0ZSgzLjc1KSBzY2FsZSguMTg3NSkiLz48cGF0aCBmaWxsPSJ1cmwoI2xpbnV4X3N2Z19fYUspIiBkPSJNOTEuNjYgNTguNTNjMS41My0xLjcxIDIuNTctMy44IDQuMDMtNS41Ni43My0uODggMS41OC0xLjY5IDIuNTctMi4yNi45OS0uNTcgMi4xNS0uODkgMy4yOS0uNzkgMS4yNy4xMSAyLjQ2Ljc0IDMuMzkgMS42MS45My44NyAxLjYyIDEuOTcgMi4xNyAzLjEyLjUzIDEuMTEuOTUgMi4yOCAxLjcxIDMuMjQuODEgMS4wMiAxLjk0IDEuNzEgMi45NyAyLjUyLjUxLjQgMS4wMS44MyAxLjQxIDEuMzQuNDEuNTEuNzIgMS4xLjg2IDEuNzQuMTMuNjUuMDYgMS4zMy0uMTYgMS45NS0uMjMuNjItLjYxIDEuMTgtMS4wOSAxLjY0LS45NS45Mi0yLjI1IDEuNDItMy41NiAxLjYtMi42Mi4zNy01LjI3LS40MS03LjkyLS4zNC0yLjY3LjA4LTUuMjkgMS4wMi03Ljk3LjkzLTEuMzMtLjA1LTIuNjktLjM4LTMuNzktMS4xNC0uNTUtLjM5LTEuMDMtLjg4LTEuMzgtMS40NWE0LjEgNC4xIDAgMCAxLS41OC0xLjljLS4wMi0uNjQuMTMtMS4yOC4zOS0xLjg2LjI1LS41OS42MS0xLjEyIDEuMDEtMS42Mi44MS0uOTkgMS44LTEuODEgMi42NS0yLjc3eiIgc3R5bGU9ImZpbGw6dXJsKCNsaW51eF9zdmdfX2FLKSIgdHJhbnNmb3JtPSJ0cmFuc2xhdGUoMy43NSkgc2NhbGUoLjE4NzUpIi8+PGcgdHJhbnNmb3JtPSJ0cmFuc2xhdGUoMy43NSkgc2NhbGUoLjE4NzUpIj48cGF0aCBpZD0ibGludXhfc3ZnX19FIiBmaWxsPSJ1cmwoI2xpbnV4X3N2Z19fYUwpIiBkPSJNNzcuMTQgNzUuMDVjLjA2LjI2LjE1LjUuMjguNzMuMjMuMzguNTcuNjkuOTMuOTUuMzYuMjcuNzUuNDkgMS4xMy43MiAyLjAxIDEuMjcgMy42NSAzLjA0IDUuMTEgNC45MiAxLjk1IDIuNTIgMy42OCA1LjMxIDYuMjkgNy4xNCAxLjg0IDEuMyA0LjA0IDIuMDMgNi4yOCAyLjI2IDIuNjMuMjYgNS4yOS0uMTYgNy44My0uOTEgMi4zNS0uNjkgNC42Mi0xLjY2IDYuNy0yLjk1IDMuOTctMi40NCA3LjI4LTYuMDIgMTEuNjUtNy42My45NS0uMzUgMS45NC0uNiAyLjg2LTEuMDMuOTItLjQ0IDEuNzktMS4wOCAyLjIzLTIgLjQyLS44OC40LTEuOS41NC0yLjg3LjE1LTEuMDMuNDgtMi4wMy42Ni0zLjA2LjE4LTEuMDMuMi0yLjEzLS4yNC0zLjA4LS4zNy0uNzgtMS4wNC0xLjQtMS44MS0xLjc5LS43Ny0uNC0xLjY0LS41OC0yLjUxLS42Mi0xLjcyLS4wOC0zLjQzLjM2LTUuMTYuNTItMi4yOC4yMS00LjU4LS4wOS02Ljg3LS4wMi0yLjg1LjA5LTUuNjYuNzMtOC41MS44Ny0zLjI1LjE1LTYuNDktLjM1LTkuNzQtLjQ4LTEuNDEtLjA2LTIuODMtLjA0LTQuMjIuMi0xLjM5LjIzLTIuNzUuNzEtMy45MSAxLjUxLTEuMTMuNzgtMi4wMyAxLjg0LTMuMDcgMi43NC0uNTIuNDUtMS4wOC44Ni0xLjcgMS4xNi0uNjEuMy0xLjI5LjQ5LTEuOTguNDctLjM1LS4wMS0uNzItLjA2LTEuMDUuMDQtLjIxLjA3LS40LjItLjU2LjM1LS4xNi4xNi0uMjkuMzQtLjQxLjUyLS4yOS40Mi0uNTQuODctLjc1IDEuMzR6IiBzdHlsZT0iZmlsbDp1cmwoI2xpbnV4X3N2Z19fYUwpIi8+PHBhdGggZmlsbD0iI2Q5YjMwZCIgZD0iTTg5LjkgNzguNTZhNS43NyA1Ljc3IDAgMCAwIC41NiA0LjExYy42OCAxLjI0IDEuODQgMi4yIDMuMTkgMi42NSAxLjcuNTcgMy42Mi4yOSA1LjIxLS41NC45My0uNDggMS43Ny0xLjE2IDIuMy0yLjA2LjI3LS40NC40Ni0uOTQuNTMtMS40Ni4wNi0uNTEuMDItMS4wNS0uMTYtMS41NC0uMi0uNTMtLjU2LTEtLjk5LTEuMzdhNC40OCA0LjQ4IDAgMCAwLTEuNS0uODJjLTEuMDgtLjM2LTIuNzctLjY2LTMuOTEtLjY4LTIuMDItLjA0LTQuOS4zNC01LjIzIDEuNzF6IiBjbGlwLXBhdGg9InVybCgjbGludXhfc3ZnX19hTSkiIGZpbHRlcj0idXJsKCNsaW51eF9zdmdfX2FOKSIvPjwvZz48ZyB0cmFuc2Zvcm09InRyYW5zbGF0ZSgzLjc1KSBzY2FsZSguMTg3NSkiPjxwYXRoIGZpbGw9IiM2MDQ0MDUiIGQ9Ik04NC4zMSA2Ny44NmMtMS4xNi42OC0yLjI3IDEuNDMtMy4zNiAyLjItLjU3LjQxLTEuMTUuODQtMS40NSAxLjQ3LS4yMS40NC0uMjYuOTQtLjI3IDEuNDMgMCAuNS4wMy45OS0uMDQgMS40OC0uMDQuMzMtLjEzLjY2LS4xNC45OS0uMDEuMTcgMCAuMzQuMDQuNS4wNS4xNi4xMy4zMi4yNC40NC4xNS4xNi4zNS4yNi41Ni4zMi4yMS4wNi40Mi4wOS42NC4xNCAxLjAxLjI0IDEuODkuODYgMi42NiAxLjU2Ljc3LjY5IDEuNDcgMS40OCAyLjI4IDIuMTMgMi4xOCAxLjc4IDUuMDcgMi41MiA3Ljg5IDIuNTYgMi44Mi4wNSA1LjYxLS41NCA4LjM2LTEuMTYgMi4xNi0uNDkgNC4zMi0uOTkgNi4zOS0xLjc2IDMuMi0xLjE4IDYuMTYtMi45NiA4LjcyLTUuMTkgMS4xNy0xLjAxIDIuMjYtMi4xMiAzLjU3LTIuOTQgMS4xNS0uNzMgMi40NC0xLjIxIDMuNjItMS45LjExLS4wNi4yMS0uMTMuMy0uMi4xLS4wOC4xOC0uMTguMjQtLjI4LjA5LS4xOS4wOS0uNDIuMDMtLjYycy0uMTgtLjM4LS4zMS0uNTVjLS4xNS0uMTgtLjMxLS4zNC0uNDktLjUtMS4yMy0xLjA1LTIuODktMS40My00LjUxLTEuNTYtMS42MS0uMTItMy4yNC0uMDMtNC44My0uMy0xLjUtLjI1LTIuOTItLjgxLTQuMzctMS4yNy0xLjUyLS40OS0zLjA3LS44Ny00LjY0LTEuMTMtMy43MS0uNjEtNy41Mi0uNDktMTEuMTkuMjctMy40OS43My02Ljg3IDIuMDUtOS45NCAzLjg3eiIgY2xpcC1wYXRoPSJ1cmwoI2xpbnV4X3N2Z19fYU0pIiBmaWx0ZXI9InVybCgjbGludXhfc3ZnX19hTykiLz48cGF0aCBpZD0ibGludXhfc3ZnX19GIiBmaWxsPSJ1cmwoI2xpbnV4X3N2Z19fYVApIiBkPSJNODMuOTQgNjMuOTVhMjAuNzUgMjAuNzUgMCAwIDAtNC40MyA0LjA0Yy0uNzIuODktMS4zOCAxLjg2LTEuNzQgMi45NC0uMjkuODYtLjM5IDEuNzYtLjU3IDIuNjUtLjA3LjMzLS4xNS42Ni0uMTQgMSAwIC4xNi4wMi4zMy4wNy41LjA1LjE2LjE0LjMxLjI1LjQzLjIuMi40Ny4zMS43NC4zNy4yOC4wNS41Ni4wNi44NC4wOSAxLjI1LjE1IDIuNC43NSAzLjQ0IDEuNDcgMS4wNC43MSAyIDEuNTUgMy4wNyAyLjIyIDIuMzUgMS40OSA1LjE2IDIuMTUgNy45NSAyLjI2IDIuNzguMTEgNS41Ni0uMzEgOC4zLS44NiAyLjE3LS40MyA0LjMzLS45NSA2LjM5LTEuNzYgMy4xNi0xLjI1IDYuMDEtMy4xNiA4LjcyLTUuMTkgMS4yNC0uOTIgMi40Ni0xLjg3IDMuNTctMi45NC4zNy0uMzcuNzQtLjc0IDEuMTQtMS4wOC40LS4zMy44NS0uNjIgMS4zNS0uNzguNzYtLjI0IDEuNTgtLjE3IDIuMzctLjA0LjU5LjEgMS4xOC4yMyAxLjc4LjIxLjMtLjAyLjYtLjA3Ljg4LS4xOC4yOC0uMTEuNTQtLjI4LjczLS41Mi4yNS0uMy4zOC0uNy4zOC0xLjA5IDAtLjQtLjEyLS43OS0uMzItMS4xMy0uNC0uNjgtMS4wOS0xLjE0LTEuODEtMS40Ni0uOTktLjQ0LTIuMDYtLjY1LTMuMTEtLjkxLTMuMjMtLjc4LTYuMzctMS45My05LjM0LTMuNDEtMS40OC0uNzMtMi45Mi0xLjU0LTQuMzctMi4zMi0xLjUtLjgtMy4wMi0xLjU3LTQuNjQtMi4wNy0zLjY0LTEuMS03LjYtLjc0LTExLjE5LjUxYTIzLjg4IDIzLjg4IDAgMCAwLTEwLjMxIDcuMDV6IiBzdHlsZT0iZmlsbDp1cmwoI2xpbnV4X3N2Z19fYVApIi8+PHBhdGggZmlsbD0iI2Y2ZGE0YSIgZD0iTTEwOS40NSA2NC43NWMtLjItLjI0LS40OC0uNDItLjc4LS41MS0uMy0uMDktLjYyLS4wOS0uOTMtLjA0LS42Mi4xMS0xLjE4LjQ0LTEuNy44LTEuNDcgMS4wMS0yLjc3IDIuMjYtMy45MSAzLjY0LTEuNSAxLjgzLTIuNzQgMy45NC0zLjE2IDYuMjctLjA3LjM5LS4xMS44LS4wNyAxLjE5LjA1LjQuMi43OS40OSAxLjA3LjI0LjI1LjU4LjQuOTIuNDUuMzUuMDUuNzEgMCAxLjA0LS4xMS42Ni0uMjIgMS4yMS0uNjkgMS43NC0xLjE1IDIuODctMi41OCA1LjQ3LTUuNjYgNi41MS05LjM4LjEtLjM3LjE5LS43NS4xOS0xLjE0IDAtLjM5LS4xLS43OC0uMzQtMS4wOXoiIGNsaXAtcGF0aD0idXJsKCNsaW51eF9zdmdfX2FRKSIgZmlsdGVyPSJ1cmwoI2xpbnV4X3N2Z19fYVIpIi8+PHBhdGggZmlsbD0idXJsKCNsaW51eF9zdmdfX2FTKSIgZD0iTTkyLjcyIDU5LjA2Yy0uNzctLjI1LTIuMDMgMS4xLTEuNjIgMS43OS4xMS4xOS40Ni40My43LjMuMzUtLjE5LjY0LS44OSAxLjAyLTEuMTYuMjUtLjE4LjItLjg0LS4xLS45M3oiIGZpbHRlcj0idXJsKCNsaW51eF9zdmdfX2FUKSIgb3BhY2l0eT0iLjgiIHN0eWxlPSJmaWxsOnVybCgjbGludXhfc3ZnX19hUykiLz48cGF0aCBmaWxsPSJ1cmwoI2xpbnV4X3N2Z19fYVUpIiBkPSJNMTAyLjU2IDU5LjQyYy4yLjY0IDEuMjMuNTMgMS44My44NC41Mi4yNy45NC44NiAxLjUzLjg4LjU2LjAxIDEuNDQtLjIgMS41MS0uNzYuMDktLjczLS45OC0xLjItMS42Ny0xLjQ3LS44OS0uMzQtMi4wMy0uNTItMi44Ni0uMDYtLjE5LjExLS40LjM2LS4zNC41N3oiIGZpbHRlcj0idXJsKCNsaW51eF9zdmdfX2FWKSIgb3BhY2l0eT0iLjgiIHN0eWxlPSJmaWxsOnVybCgjbGludXhfc3ZnX19hVSkiLz48L2c+PHBhdGggZmlsbD0idXJsKCNsaW51eF9zdmdfX2FXKSIgZD0iTTEyOS4yNyA2OS4xNWEyLjQyIDMuMSAxNi45NCAwIDEtMi44MSAzLjA0IDIuNDIgMy4xIDE2Ljk0IDAgMS0yLjEyLTMuMDQgMi40MiAzLjEgMTYuOTQgMCAxIDIuODEtMy4wNSAyLjQyIDMuMSAxNi45NCAwIDEgMi4xMiAzLjA1eiIgY2xpcC1wYXRoPSJ1cmwoI2xpbnV4X3N2Z19fYVgpIiBmaWx0ZXI9InVybCgjbGludXhfc3ZnX19hWSkiIHN0eWxlPSJmaWxsOnVybCgjbGludXhfc3ZnX19hVykiIHRyYW5zZm9ybT0idHJhbnNsYXRlKDMuNzUpIHNjYWxlKC4xODc1KSIvPjwvc3ZnPg==;" vertex="1" parent="1">
          <mxGeometry x="550" y="271.5" width="48" height="48" as="geometry" />
        </mxCell>
        <mxCell id="5C0KSKrSwuikj9-oB2Ug-5" value="" style="shape=image;verticalLabelPosition=bottom;verticalAlign=top;imageAspect=0;aspect=fixed;image=data:image/svg+xml,PHN2ZyB4bWxucz0iaHR0cDovL3d3dy53My5vcmcvMjAwMC9zdmciIHZpZXdCb3g9IjAgMCA0OCA0OCI+PHBhdGggZmlsbD0iIzAwNzhkNCIgZD0iTTAtLjAwMWgyMi43NTJ2MjIuNzUySDB6bTI1LjI0OCAwSDQ4djIyLjc1MkgyNS4yNDh6TTAgMjUuMjQ5aDIyLjc1MnYyMi43NTJIMHptMjUuMjQ4IDBINDh2MjIuNzUySDI1LjI0OHoiLz48L3N2Zz4=;" vertex="1" parent="1">
          <mxGeometry x="669" y="271.5" width="48" height="48" as="geometry" />
        </mxCell>
        <mxCell id="5C0KSKrSwuikj9-oB2Ug-7" value="Internet" style="ellipse;shape=cloud;whiteSpace=wrap;html=1;fontFamily=Courier New;" vertex="1" parent="1">
          <mxGeometry x="40" y="50" width="120" height="80" as="geometry" />
        </mxCell>
        <mxCell id="5C0KSKrSwuikj9-oB2Ug-8" value="Hotel" style="image;points=[];aspect=fixed;html=1;align=center;shadow=0;dashed=0;image=img/lib/allied_telesis/buildings/Large_Building.svg;fontFamily=Courier New;" vertex="1" parent="1">
          <mxGeometry x="62.5" y="207" width="75" height="75" as="geometry" />
        </mxCell>
        <mxCell id="5C0KSKrSwuikj9-oB2Ug-10" value="" style="endArrow=none;html=1;rounded=0;" edge="1" parent="1" source="5C0KSKrSwuikj9-oB2Ug-8" target="5C0KSKrSwuikj9-oB2Ug-7">
          <mxGeometry width="50" height="50" relative="1" as="geometry">
            <mxPoint x="240" y="190" as="sourcePoint" />
            <mxPoint x="290" y="140" as="targetPoint" />
          </mxGeometry>
        </mxCell>
        <mxCell id="5C0KSKrSwuikj9-oB2Ug-11" value="" style="endArrow=none;html=1;rounded=0;fontFamily=Courier New;" edge="1" parent="1" source="5C0KSKrSwuikj9-oB2Ug-8" target="5C0KSKrSwuikj9-oB2Ug-1">
          <mxGeometry width="50" height="50" relative="1" as="geometry">
            <mxPoint x="110" y="217" as="sourcePoint" />
            <mxPoint x="110" y="140" as="targetPoint" />
          </mxGeometry>
        </mxCell>
        <mxCell id="5C0KSKrSwuikj9-oB2Ug-12" value="Wired or wireless" style="edgeLabel;html=1;align=center;verticalAlign=middle;resizable=0;points=[];fontFamily=Courier New;" vertex="1" connectable="0" parent="5C0KSKrSwuikj9-oB2Ug-11">
          <mxGeometry x="-0.2406" relative="1" as="geometry">
            <mxPoint x="21" as="offset" />
          </mxGeometry>
        </mxCell>
        <mxCell id="5C0KSKrSwuikj9-oB2Ug-13" value="" style="endArrow=none;html=1;rounded=0;fontFamily=Courier New;" edge="1" parent="1" source="5C0KSKrSwuikj9-oB2Ug-1" target="5C0KSKrSwuikj9-oB2Ug-6">
          <mxGeometry width="50" height="50" relative="1" as="geometry">
            <mxPoint x="148" y="255" as="sourcePoint" />
            <mxPoint x="310" y="255" as="targetPoint" />
          </mxGeometry>
        </mxCell>
        <mxCell id="5C0KSKrSwuikj9-oB2Ug-14" value="Wired or wireless" style="edgeLabel;html=1;align=center;verticalAlign=middle;resizable=0;points=[];fontFamily=Courier New;" vertex="1" connectable="0" parent="5C0KSKrSwuikj9-oB2Ug-13">
          <mxGeometry x="-0.2406" relative="1" as="geometry">
            <mxPoint x="21" as="offset" />
          </mxGeometry>
        </mxCell>
      </root>
    </mxGraphModel>
  </diagram>
</mxfile>
